<?xml version="1.0" encoding="utf-8"?>
<!-- Generator: Adobe Illustrator 19.1.0, SVG Export Plug-In . SVG Version: 6.00 Build 0)  -->
<svg version="1.1" id="Layer_1" xmlns="http://www.w3.org/2000/svg" xmlns:xlink="http://www.w3.org/1999/xlink" x="0px" y="0px"
	 width="492px" height="138px" viewBox="0 0 492 138" style="enable-background:new 0 0 492 138;" xml:space="preserve">
<style type="text/css">
	.st0{fill:none;}
	.st1{fill:#E07D10;}
	.st2{fill:none;stroke:#ED5FA6;stroke-width:7;stroke-linecap:round;stroke-linejoin:round;stroke-miterlimit:10;}
	.st3{fill:none;stroke:#AA87FF;stroke-width:7;stroke-linecap:round;stroke-linejoin:round;stroke-miterlimit:10;}
	.st4{fill:none;stroke:#FF9C39;stroke-width:7;stroke-linecap:round;stroke-linejoin:round;stroke-miterlimit:10;}
	.st5{fill:#8AF281;stroke:#8AF281;stroke-linecap:round;stroke-linejoin:round;stroke-miterlimit:10;}
	.st6{fill:#FF9C39;stroke:#E07D10;stroke-linecap:round;stroke-linejoin:round;stroke-miterlimit:10;}
	.st7{fill:none;stroke:#8AF281;stroke-width:7;stroke-linecap:round;stroke-linejoin:round;stroke-miterlimit:10;}
	.st8{fill:#ED5FA6;stroke:#ED5FA6;stroke-width:7;stroke-linecap:round;stroke-linejoin:round;stroke-miterlimit:10;}
	.st9{fill:none;stroke:#1FAB54;stroke-width:7;stroke-linecap:round;stroke-linejoin:round;stroke-miterlimit:10;}
	.st10{fill:none;stroke:#1FAB54;stroke-width:6;stroke-linecap:round;stroke-linejoin:round;stroke-miterlimit:10;}
	.st11{fill:#FF9C39;stroke:#FF9C39;stroke-width:5;stroke-linecap:round;stroke-miterlimit:10;}
	.st12{fill:none;stroke:#1FAB54;stroke-width:4;stroke-miterlimit:10;}
	.st13{fill:none;stroke:#3C91E5;stroke-width:4;stroke-miterlimit:10;}
	.st14{fill:#FFFFFF;}
	.st15{fill:none;stroke:#11ACCD;stroke-width:5;stroke-linecap:round;stroke-miterlimit:10;}
	.st16{fill:#11ACCD;}
	.st17{fill:none;stroke:#FF9C39;stroke-width:4;stroke-miterlimit:10;}
	.st18{fill:none;stroke:#63D9EA;stroke-width:7;stroke-linecap:round;stroke-miterlimit:10;}
	.st19{fill:none;stroke:#63D9EA;stroke-width:8;stroke-linecap:round;stroke-miterlimit:10;}
	.st20{fill:none;stroke:#000000;stroke-linecap:round;stroke-linejoin:round;stroke-miterlimit:10;}
	.st21{fill:none;stroke:#000000;stroke-width:1.5;stroke-linecap:round;stroke-linejoin:round;stroke-miterlimit:10;}
	.st22{fill:none;stroke:#000000;stroke-linecap:round;stroke-miterlimit:10;}
	.st23{fill:none;stroke:#000000;stroke-width:1.5;stroke-linecap:round;stroke-miterlimit:10;}
	.st24{fill:none;stroke:#000000;stroke-width:2;stroke-linecap:round;stroke-linejoin:round;stroke-miterlimit:10;}
	.st25{fill:none;stroke:#000000;stroke-width:1.5;stroke-miterlimit:10;}
	.st26{fill:none;stroke:#000000;stroke-miterlimit:10;}
	.st27{fill:none;stroke:#000000;stroke-width:2;stroke-miterlimit:10;}
	.st28{fill:none;stroke:#000000;stroke-width:2;stroke-linecap:round;stroke-miterlimit:10;}
	.st29{fill:none;stroke:#000000;stroke-linecap:round;stroke-linejoin:round;}
	.st30{stroke:#000000;stroke-linecap:round;stroke-linejoin:round;stroke-miterlimit:10;}
	.st31{fill:none;stroke:#000000;stroke-width:1.5;stroke-linejoin:round;stroke-miterlimit:10;}
	.st32{fill:none;stroke:#000000;stroke-linejoin:round;stroke-miterlimit:10;}
	.st33{clip-path:url(#SVGID_2_);fill:none;stroke:#000000;stroke-linejoin:round;stroke-miterlimit:10;}
	.st34{clip-path:url(#SVGID_2_);fill:none;stroke:#ADADEB;stroke-linejoin:round;stroke-miterlimit:10;}
	.st35{clip-path:url(#SVGID_2_);}
	.st36{stroke:#000000;stroke-linejoin:round;stroke-miterlimit:10;}
	.st37{stroke:#000000;stroke-width:3;stroke-linejoin:round;stroke-miterlimit:10;}
	.st38{fill:none;stroke:#000000;stroke-width:2;stroke-linejoin:round;stroke-miterlimit:10;}
	.st39{fill:none;stroke:#E84D39;stroke-width:3;stroke-linecap:round;stroke-linejoin:round;}
	.st40{fill:#E84D39;}
	.st41{fill:none;stroke:#11ACCD;stroke-width:2;stroke-linecap:round;stroke-linejoin:round;}
	.st42{fill:none;stroke:#F9685D;stroke-width:2;stroke-linecap:round;stroke-linejoin:round;}
	.st43{fill:#F9685D;}
	.st44{fill:#11ACCD;stroke:#000000;stroke-linecap:round;stroke-miterlimit:10;}
	.st45{stroke:#000000;stroke-linecap:round;stroke-miterlimit:10;}
	.st46{fill:#FFFF00;stroke:#000000;stroke-linecap:round;stroke-miterlimit:10;}
	.st47{fill:#F9685D;stroke:#000000;stroke-linecap:round;stroke-miterlimit:10;}
	.st48{fill:#D6D8DA;stroke:#000000;stroke-linecap:round;stroke-miterlimit:10;}
	.st49{fill:none;stroke:#FF9C39;stroke-width:5;stroke-linecap:round;stroke-linejoin:round;stroke-miterlimit:10;}
	.st50{fill:#FF9C39;}
	.st51{fill:#AA87FF;}
	.st52{fill:#ED5FA6;}
	.st53{fill:#1FAB54;}
	.st54{fill:none;stroke:#000000;stroke-width:4;stroke-linecap:round;stroke-linejoin:round;stroke-miterlimit:10;}
	.st55{stroke:#000000;stroke-miterlimit:10;}
	.st56{font-family:'Verdana';}
	.st57{font-size:21px;}
	.st58{stroke:#000000;stroke-width:2;stroke-linecap:round;stroke-linejoin:round;stroke-miterlimit:10;}
	.st59{fill:none;stroke:#000000;stroke-width:3;stroke-linecap:round;stroke-linejoin:round;stroke-miterlimit:10;}
	.st60{fill:none;stroke:#000000;stroke-linejoin:round;}
	.st61{fill:none;stroke:#000000;stroke-width:7;stroke-linecap:round;stroke-linejoin:round;stroke-miterlimit:10;}
	.st62{fill:none;stroke:#11ACCD;stroke-width:3;stroke-linecap:round;stroke-linejoin:round;}
	.st63{fill:none;stroke:#11ACCD;stroke-width:2;stroke-linecap:round;stroke-miterlimit:10;}
	.st64{fill:none;stroke:#E07D10;stroke-width:2;stroke-linecap:round;stroke-miterlimit:10;}
	.st65{fill:none;stroke:#11ACCD;stroke-width:2;stroke-miterlimit:10;}
	.st66{fill:none;stroke:#000000;stroke-width:3;stroke-linecap:square;stroke-miterlimit:10;}
	.st67{fill:#BE2612;}
	.st68{fill:none;stroke:#BE2612;stroke-width:2;stroke-linecap:round;stroke-linejoin:round;}
	.st69{fill:none;stroke:#21242C;stroke-linecap:round;stroke-linejoin:round;stroke-miterlimit:10;}
	.st70{fill:none;stroke:#11ACCD;stroke-width:3;stroke-linecap:round;stroke-miterlimit:10;}
	.st71{fill:#FFFFFF;stroke:#000000;stroke-miterlimit:10;}
</style>
<polyline class="st3" points="462,96 462,108 399.6,108 384,108 "/>
<line class="st3" x1="414" y1="96" x2="414" y2="108"/>
<polyline class="st4" points="288,90 288,108 324,108 "/>
<g>
	<circle class="st27" cx="36" cy="66" r="18"/>
	<polyline class="st22" points="36,48 36,24 210,24 	"/>
	<polyline class="st20" points="60,108 36,108 36,84 	"/>
	<line class="st25" x1="36" y1="52.5" x2="36" y2="64.5"/>
	<line class="st25" x1="30" y1="58.5" x2="42" y2="58.5"/>
	<line class="st25" x1="30" y1="76.5" x2="42" y2="76.5"/>
</g>
<text transform="matrix(1 0 0 1 264 114)" class="st50 st56 st57">1</text>
<text transform="matrix(1 0 0 1 474 114)" class="st51 st56 st57">2</text>
<polyline class="st2" points="288,24 288,24 462,24 462,36 "/>
<line class="st2" x1="288" y1="42" x2="288" y2="24"/>
<line class="st2" x1="414" y1="36" x2="414" y2="24"/>
<text transform="matrix(1 0 0 1 474.0001 30)" class="st52 st56 st57">3</text>
<g>
	<line class="st20" x1="125.4" y1="108" x2="144" y2="108"/>
	<polyline class="st24" points="78.6,108 82.5,99 90.3,117 98.1,99 105.9,117 113.7,99 121.5,117 125.4,108 	"/>
	<line class="st20" x1="60" y1="108" x2="78.6" y2="108"/>
	<rect x="60" y="96" class="st0" width="84" height="24"/>
</g>
<g>
	<line class="st20" x1="162" y1="42.6" x2="162" y2="24"/>
	<polyline class="st24" points="162,89.4 153,85.5 171,77.7 153,69.9 171,62.1 153,54.3 171,46.5 162,42.6 	"/>
	<line class="st20" x1="162" y1="108" x2="162" y2="89.4"/>
	<rect x="150" y="24" class="st0" width="24" height="84"/>
</g>
<g>
	<line class="st20" x1="210" y1="42.6" x2="210" y2="24"/>
	<polyline class="st24" points="210,89.4 201,85.5 219,77.7 201,69.9 219,62.1 201,54.3 219,46.5 210,42.6 	"/>
	<line class="st20" x1="210" y1="108" x2="210" y2="89.4"/>
	<rect x="198" y="24" class="st0" width="24" height="84"/>
</g>
<line class="st22" x1="210" y1="108" x2="144" y2="108"/>
<g>
	<circle class="st27" cx="288" cy="66" r="18"/>
	<polyline class="st22" points="288,48 288,24 462,24 	"/>
	<polyline class="st20" points="312,108 288,108 288,84 	"/>
	<line class="st25" x1="288" y1="52.5" x2="288" y2="64.5"/>
	<line class="st25" x1="282" y1="58.5" x2="294" y2="58.5"/>
	<line class="st25" x1="282" y1="76.5" x2="294" y2="76.5"/>
</g>
<g>
	<line class="st20" x1="377.4" y1="108" x2="396" y2="108"/>
	<polyline class="st24" points="330.6,108 334.5,99 342.3,117 350.1,99 357.9,117 365.7,99 373.5,117 377.4,108 	"/>
	<line class="st20" x1="312" y1="108" x2="330.6" y2="108"/>
	<rect x="312" y="96" class="st0" width="84" height="24"/>
</g>
<g>
	<line class="st20" x1="414" y1="42.6" x2="414" y2="24"/>
	<polyline class="st24" points="414,89.4 405,85.5 423,77.7 405,69.9 423,62.1 405,54.3 423,46.5 414,42.6 	"/>
	<line class="st20" x1="414" y1="108" x2="414" y2="89.4"/>
	<rect x="402" y="24" class="st0" width="24" height="84"/>
</g>
<g>
	<line class="st20" x1="462" y1="42.6" x2="462" y2="24"/>
	<polyline class="st24" points="462,89.4 453,85.5 471,77.7 453,69.9 471,62.1 453,54.3 471,46.5 462,42.6 	"/>
	<line class="st20" x1="462" y1="108" x2="462" y2="89.4"/>
	<rect x="450" y="24" class="st0" width="24" height="84"/>
</g>
<line class="st22" x1="462" y1="108" x2="396" y2="108"/>
</svg>
