<?xml version="1.0" encoding="UTF-8" standalone="no"?>
<!-- Created with Inkscape (http://www.inkscape.org/) -->

<svg
   xmlns:osb="http://www.openswatchbook.org/uri/2009/osb"
   xmlns:dc="http://purl.org/dc/elements/1.1/"
   xmlns:cc="http://creativecommons.org/ns#"
   xmlns:rdf="http://www.w3.org/1999/02/22-rdf-syntax-ns#"
   xmlns:svg="http://www.w3.org/2000/svg"
   xmlns="http://www.w3.org/2000/svg"
   xmlns:sodipodi="http://sodipodi.sourceforge.net/DTD/sodipodi-0.dtd"
   xmlns:inkscape="http://www.inkscape.org/namespaces/inkscape"
   viewBox="0 0 600.21032 850.23856"
   id="svg2"
   version="1.1"
   inkscape:version="0.48.2 r9819"
   sodipodi:docname="griffith_30.svg"
   inkscape:export-filename="C:\Users\bmcginty\Documents\Dropbox\Public\2014 Fracture Mechanics\images\griffith\griffith_30.png"
   inkscape:export-xdpi="90"
   inkscape:export-ydpi="90"
   width="100%"
   height="100%">
  <defs
     id="defs4">
    <linearGradient
       osb:paint="solid"
       id="linearGradient3834">
      <stop
         id="stop3836"
         offset="0"
         style="stop-color:#000000;stop-opacity:1;" />
    </linearGradient>
  </defs>
  <sodipodi:namedview
     id="base"
     pagecolor="#ffffff"
     bordercolor="#666666"
     borderopacity="1.0"
     inkscape:pageopacity="0.0"
     inkscape:pageshadow="2"
     inkscape:zoom="0.61093884"
     inkscape:cx="543.9921"
     inkscape:cy="425.11928"
     inkscape:document-units="px"
     inkscape:current-layer="layer1"
     showgrid="false"
     inkscape:window-width="1366"
     inkscape:window-height="706"
     inkscape:window-x="-8"
     inkscape:window-y="-8"
     inkscape:window-maximized="1"
     fit-margin-top="2"
     fit-margin-left="2"
     fit-margin-right="2"
     fit-margin-bottom="2"
     showborder="true" />
  <metadata
     id="metadata7">
    <rdf:RDF>
      <cc:Work
         rdf:about="">
        <dc:format>image/svg+xml</dc:format>
        <dc:type
           rdf:resource="http://purl.org/dc/dcmitype/StillImage" />
        <dc:title />
      </cc:Work>
    </rdf:RDF>
  </metadata>
  <g
     inkscape:label="Layer 1"
     inkscape:groupmode="layer"
     id="layer1"
     transform="translate(-170.32107,-96.829509)">
    <text
       xml:space="preserve"
       style="font-size:20px;font-style:normal;font-variant:normal;font-weight:normal;font-stretch:normal;text-align:start;line-height:125%;letter-spacing:0px;word-spacing:0px;writing-mode:lr-tb;text-anchor:start;fill:#000000;fill-opacity:1;stroke:none;font-family:Arial;-inkscape-font-specification:Arial"
       x="-33.477245"
       y="298.15317"
       id="text3891"
       sodipodi:linespacing="125%"><tspan
         sodipodi:role="line"
         id="tspan3893"
         x="-33.477245"
         y="298.15317" /></text>
    <text
       xml:space="preserve"
       style="font-size:28px;font-style:normal;font-variant:normal;font-weight:normal;font-stretch:normal;text-align:start;line-height:125%;letter-spacing:0px;word-spacing:0px;writing-mode:lr-tb;text-anchor:start;fill:#000000;fill-opacity:1;stroke:none;font-family:Arial;-inkscape-font-specification:Arial"
       x="-34.831188"
       y="298.83014"
       id="text3895"
       sodipodi:linespacing="125%"><tspan
         sodipodi:role="line"
         id="tspan3897"
         x="-34.831188"
         y="298.83014" /></text>
    <text
       xml:space="preserve"
       style="font-size:20px;font-style:normal;font-variant:normal;font-weight:normal;font-stretch:normal;text-align:start;line-height:125%;letter-spacing:0px;word-spacing:0px;writing-mode:lr-tb;text-anchor:start;fill:#000000;fill-opacity:1;stroke:none;font-family:Arial;-inkscape-font-specification:Arial"
       x="-147.20805"
       y="-83.657379"
       id="text3915"
       sodipodi:linespacing="125%"><tspan
         sodipodi:role="line"
         id="tspan3917"
         x="-147.20805"
         y="-83.657379" /></text>
    <text
       xml:space="preserve"
       style="font-size:20px;font-style:normal;font-variant:normal;font-weight:normal;font-stretch:normal;text-align:start;line-height:125%;letter-spacing:0px;word-spacing:0px;writing-mode:lr-tb;text-anchor:start;fill:#000000;fill-opacity:1;stroke:none;font-family:Arial;-inkscape-font-specification:Arial"
       x="-203.76376"
       y="702.73932"
       id="text3876"
       sodipodi:linespacing="125%"><tspan
         sodipodi:role="line"
         id="tspan3878"
         x="-203.76376"
         y="702.73932" /></text>
    <path
       style="fill:#000000;fill-opacity:1;stroke:#000000;stroke-width:1.99999964;stroke-linecap:butt;stroke-linejoin:miter;stroke-miterlimit:4;stroke-opacity:1;stroke-dasharray:none"
       d="m 395.17635,188.56601 -0.009,-28.68874"
       id="path4642"
       inkscape:connector-curvature="0" />
    <g
       transform="matrix(-0.00256799,-0.76801013,0.82899291,-0.0027719,-308.19775,268.19938)"
       id="g4644">
      <path
         sodipodi:nodetypes="cccc"
         inkscape:connector-curvature="0"
         id="path4646"
         d="m 150.04901,848.85171 -14.80195,-8.84987 -0.0552,17.52916 z"
         style="fill:#000000;fill-opacity:1;stroke:#000000;stroke-width:1.25325274px;stroke-linecap:butt;stroke-linejoin:miter;stroke-opacity:1" />
    </g>
    <path
       inkscape:connector-curvature="0"
       id="path4648"
       d="m 528.64198,181.28607 -0.009,-28.68874"
       style="fill:#000000;fill-opacity:1;stroke:#000000;stroke-width:1.99999964;stroke-linecap:butt;stroke-linejoin:miter;stroke-miterlimit:4;stroke-opacity:1;stroke-dasharray:none" />
    <g
       id="g4650"
       transform="matrix(-0.00256799,-0.76801013,0.82899291,-0.0027719,-174.73212,260.91944)">
      <path
         style="fill:#000000;fill-opacity:1;stroke:#000000;stroke-width:1.25325274px;stroke-linecap:butt;stroke-linejoin:miter;stroke-opacity:1"
         d="m 150.04901,848.85171 -14.80195,-8.84987 -0.0552,17.52916 z"
         id="path4652"
         inkscape:connector-curvature="0"
         sodipodi:nodetypes="cccc" />
    </g>
    <path
       style="fill:#000000;fill-opacity:1;stroke:#000000;stroke-width:1.99999964;stroke-linecap:butt;stroke-linejoin:miter;stroke-miterlimit:4;stroke-opacity:1;stroke-dasharray:none"
       d="m 662.10761,187.71272 -0.009,-28.68874"
       id="path4654"
       inkscape:connector-curvature="0" />
    <g
       transform="matrix(-0.00256799,-0.76801013,0.82899291,-0.0027719,-41.266484,267.34609)"
       id="g4656">
      <path
         sodipodi:nodetypes="cccc"
         inkscape:connector-curvature="0"
         id="path4658"
         d="m 150.04901,848.85171 -14.80195,-8.84987 -0.0552,17.52916 z"
         style="fill:#000000;fill-opacity:1;stroke:#000000;stroke-width:1.25325274px;stroke-linecap:butt;stroke-linejoin:miter;stroke-opacity:1" />
    </g>
    <g
       id="g4744"
       transform="matrix(1.3674743,0,0,1.3674743,880.76256,186.2772)">
      <text
         transform="translate(-502.73813,54.648431)"
         sodipodi:linespacing="125%"
         id="text4736"
         y="-100.21663"
         x="250.73239"
         style="font-size:36px;font-style:normal;font-variant:normal;font-weight:normal;font-stretch:normal;text-align:start;line-height:125%;letter-spacing:0px;word-spacing:0px;writing-mode:lr-tb;text-anchor:start;fill:#000000;fill-opacity:1;stroke:none;font-family:SWGrekc;-inkscape-font-specification:SWGrekc"
         xml:space="preserve"><tspan
           y="-100.21663"
           x="250.73239"
           id="tspan4738"
           sodipodi:role="line">s</tspan></text>
      <text
         transform="matrix(0,-1,1,0,0,0)"
         sodipodi:linespacing="125%"
         id="text4740"
         y="-219.97079"
         x="38.176235"
         style="font-size:18px;font-style:normal;font-variant:normal;font-weight:normal;font-stretch:normal;text-align:start;line-height:125%;letter-spacing:0px;word-spacing:0px;writing-mode:lr-tb;text-anchor:start;fill:#000000;fill-opacity:1;stroke:none;font-family:Arial;-inkscape-font-specification:Arial"
         xml:space="preserve"><tspan
           y="-219.97079"
           x="38.176235"
           id="tspan4742"
           sodipodi:role="line">8</tspan></text>
    </g>
    <g
       transform="matrix(1.3674743,0,0,1.3674743,884.95845,998.27065)"
       id="g4750">
      <text
         xml:space="preserve"
         style="font-size:36px;font-style:normal;font-variant:normal;font-weight:normal;font-stretch:normal;text-align:start;line-height:125%;letter-spacing:0px;word-spacing:0px;writing-mode:lr-tb;text-anchor:start;fill:#000000;fill-opacity:1;stroke:none;font-family:SWGrekc;-inkscape-font-specification:SWGrekc"
         x="250.73239"
         y="-100.21663"
         id="text4752"
         sodipodi:linespacing="125%"
         transform="translate(-502.73813,54.648431)"><tspan
           sodipodi:role="line"
           id="tspan4754"
           x="250.73239"
           y="-100.21663">s</tspan></text>
      <text
         xml:space="preserve"
         style="font-size:18px;font-style:normal;font-variant:normal;font-weight:normal;font-stretch:normal;text-align:start;line-height:125%;letter-spacing:0px;word-spacing:0px;writing-mode:lr-tb;text-anchor:start;fill:#000000;fill-opacity:1;stroke:none;font-family:Arial;-inkscape-font-specification:Arial"
         x="38.176235"
         y="-219.97079"
         id="text4756"
         sodipodi:linespacing="125%"
         transform="matrix(0,-1,1,0,0,0)"><tspan
           sodipodi:role="line"
           id="tspan4758"
           x="38.176235"
           y="-219.97079">8</tspan></text>
    </g>
    <path
       style="fill:none;stroke:#ff0000;stroke-width:4;stroke-linecap:butt;stroke-linejoin:miter;stroke-miterlimit:4;stroke-opacity:1;stroke-dasharray:none"
       d="m 383.42586,217.7543 c 0.17397,38.73807 1.41958,86.33848 7.16973,117.95007 5.13589,29.92183 15.83314,61.07714 33.15999,88.02959 14.86954,21.28049 34.27004,41.81903 43.18205,58.50783 6.56273,13.22791 12.26933,25.48036 11.65081,41.67681"
       id="path3134"
       inkscape:connector-curvature="0"
       sodipodi:nodetypes="ccccc" />
    <path
       sodipodi:nodetypes="ccccc"
       inkscape:connector-curvature="0"
       id="path3985"
       d="m 383.42586,830.03253 c 0.17397,-38.73806 1.41958,-86.33849 7.16973,-117.95008 5.13589,-29.92181 15.83314,-61.07714 33.15999,-88.02957 14.86954,-21.28051 34.27004,-41.81905 43.18205,-58.50785 6.56273,-13.2279 12.26933,-25.48033 11.65081,-41.67682"
       style="fill:none;stroke:#ff0000;stroke-width:4;stroke-linecap:butt;stroke-linejoin:miter;stroke-miterlimit:4;stroke-opacity:1;stroke-dasharray:none" />
    <g
       id="g3259"
       transform="matrix(1,0,0,2.1024093,0,-577.77933)">
      <path
         style="fill:none;stroke:#ff0000;stroke-width:2.75868011;stroke-linecap:butt;stroke-linejoin:miter;stroke-miterlimit:4;stroke-opacity:1;stroke-dasharray:none"
         d="m 410.79515,378.39142 c 0.14646,18.42556 1.19513,41.06645 6.03615,56.10234 4.32387,14.23216 13.32981,29.05102 27.91717,41.87081 12.51857,10.12196 28.85172,19.89101 36.35469,27.82895 5.52512,6.29178 9.64524,12.11959 9.80874,19.82336"
         id="path3168"
         inkscape:connector-curvature="0"
         sodipodi:nodetypes="ccccc" />
      <path
         sodipodi:nodetypes="ccccc"
         inkscape:connector-curvature="0"
         id="path3987"
         d="m 410.79515,669.61837 c 0.14646,-18.42556 1.19513,-41.06645 6.03615,-56.10234 4.32387,-14.23216 13.32981,-29.05102 27.91717,-41.87081 12.51857,-10.12196 28.85172,-19.89101 36.35469,-27.82895 5.52512,-6.29178 9.64524,-12.11959 9.80874,-19.82336"
         style="fill:none;stroke:#ff0000;stroke-width:2.75868011;stroke-linecap:butt;stroke-linejoin:miter;stroke-miterlimit:4;stroke-opacity:1;stroke-dasharray:none" />
    </g>
    <g
       id="g3255"
       transform="matrix(1,0,0,2.1024093,0,-577.77933)">
      <path
         sodipodi:nodetypes="ccccc"
         inkscape:connector-curvature="0"
         id="path3172"
         d="m 438.16446,378.39142 c 0.11894,18.42556 0.97057,41.06645 4.90201,56.10234 3.51146,14.23216 10.82529,29.05102 22.67183,41.87081 10.16646,10.12196 23.43078,19.89101 29.52402,27.82895 4.48701,6.29178 7.833,12.11959 7.96578,19.82336"
         style="fill:none;stroke:#ff0000;stroke-width:2.75868011;stroke-linecap:butt;stroke-linejoin:miter;stroke-miterlimit:4;stroke-opacity:1;stroke-dasharray:none" />
      <path
         style="fill:none;stroke:#ff0000;stroke-width:2.75868011;stroke-linecap:butt;stroke-linejoin:miter;stroke-miterlimit:4;stroke-opacity:1;stroke-dasharray:none"
         d="m 438.16446,669.61837 c 0.11894,-18.42556 0.97057,-41.06645 4.90201,-56.10234 3.51146,-14.23216 10.82529,-29.05102 22.67183,-41.87081 10.16646,-10.12196 23.43078,-19.89101 29.52402,-27.82895 4.48701,-6.29178 7.833,-12.11959 7.96578,-19.82336"
         id="path3989"
         inkscape:connector-curvature="0"
         sodipodi:nodetypes="ccccc" />
    </g>
    <g
       id="g3251"
       transform="matrix(1,0,0,2.1024093,0,-577.77933)">
      <path
         sodipodi:nodetypes="ccccc"
         inkscape:connector-curvature="0"
         id="path3176"
         d="m 465.53372,378.39142 c 0.0952,18.42556 0.77664,41.06645 3.92254,56.10234 2.80983,14.23216 8.66227,29.05102 18.14175,41.87081 8.1351,10.12196 18.74906,19.89101 23.6248,27.82895 3.59047,6.29178 6.26789,12.11959 6.37414,19.82336"
         style="fill:none;stroke:#ff0000;stroke-width:2.75868011;stroke-linecap:butt;stroke-linejoin:miter;stroke-miterlimit:4;stroke-opacity:1;stroke-dasharray:none" />
      <path
         style="fill:none;stroke:#ff0000;stroke-width:2.75868011;stroke-linecap:butt;stroke-linejoin:miter;stroke-miterlimit:4;stroke-opacity:1;stroke-dasharray:none"
         d="m 465.53372,669.61837 c 0.0952,-18.42556 0.77664,-41.06645 3.92254,-56.10234 2.80983,-14.23216 8.66227,-29.05102 18.14175,-41.87081 8.1351,-10.12196 18.74906,-19.89101 23.6248,-27.82895 3.59047,-6.29178 6.26789,-12.11959 6.37414,-19.82336"
         id="path3991"
         inkscape:connector-curvature="0"
         sodipodi:nodetypes="ccccc" />
    </g>
    <g
       id="g3217"
       transform="matrix(1,0,0,2.1024093,0,-577.77933)">
      <path
         style="fill:none;stroke:#ff0000;stroke-width:2.75868011;stroke-linecap:butt;stroke-linejoin:miter;stroke-miterlimit:4;stroke-opacity:1;stroke-dasharray:none"
         d="m 492.90301,378.39142 c 0.0827,18.42556 0.67458,41.06645 3.40703,56.10234 2.44056,14.23216 7.52385,29.05102 15.7575,41.87081 7.06596,10.12196 16.285,19.89101 20.51996,27.82895 3.11859,6.29178 5.44414,12.11959 5.53642,19.82336"
         id="path3178"
         inkscape:connector-curvature="0"
         sodipodi:nodetypes="ccccc" />
      <path
         sodipodi:nodetypes="ccccc"
         inkscape:connector-curvature="0"
         id="path3993"
         d="m 492.90301,669.61837 c 0.0827,-18.42556 0.67458,-41.06645 3.40703,-56.10234 2.44056,-14.23216 7.52385,-29.05102 15.7575,-41.87081 7.06596,-10.12196 16.285,-19.89101 20.51996,-27.82895 3.11859,-6.29178 5.44414,-12.11959 5.53642,-19.82336"
         style="fill:none;stroke:#ff0000;stroke-width:2.75868011;stroke-linecap:butt;stroke-linejoin:miter;stroke-miterlimit:4;stroke-opacity:1;stroke-dasharray:none" />
    </g>
    <g
       id="g3221"
       transform="matrix(1,0,0,2.1024093,0,-577.77933)">
      <path
         style="fill:none;stroke:#ff0000;stroke-width:2.75868011;stroke-linecap:butt;stroke-linejoin:miter;stroke-miterlimit:4;stroke-opacity:1;stroke-dasharray:none"
         d="m 520.27229,378.39142 c 0.0739,18.42556 0.60312,41.06645 3.04617,56.10234 2.18205,14.23216 6.72694,29.05102 14.08852,41.87081 6.31756,10.12196 14.56016,19.89101 18.34656,27.82895 2.78829,6.29178 4.86752,12.11959 4.95003,19.82336"
         id="path3182"
         inkscape:connector-curvature="0"
         sodipodi:nodetypes="ccccc" />
      <path
         sodipodi:nodetypes="ccccc"
         inkscape:connector-curvature="0"
         id="path3995"
         d="m 520.27229,669.61837 c 0.0739,-18.42556 0.60312,-41.06645 3.04617,-56.10234 2.18205,-14.23216 6.72694,-29.05102 14.08852,-41.87081 6.31756,-10.12196 14.56016,-19.89101 18.34656,-27.82895 2.78829,-6.29178 4.86752,-12.11959 4.95003,-19.82336"
         style="fill:none;stroke:#ff0000;stroke-width:2.75868011;stroke-linecap:butt;stroke-linejoin:miter;stroke-miterlimit:4;stroke-opacity:1;stroke-dasharray:none" />
    </g>
    <g
       id="g3225"
       transform="matrix(1,0,0,2.1024093,0,-577.77933)">
      <path
         sodipodi:nodetypes="ccccc"
         inkscape:connector-curvature="0"
         id="path3184"
         d="m 547.64158,378.39142 c 0.0677,18.42556 0.55209,41.06645 2.78841,56.10234 1.99743,14.23216 6.15774,29.05102 12.8964,41.87081 5.78299,10.12196 13.32813,19.89101 16.79414,27.82895 2.55235,6.29178 4.45565,12.11959 4.53117,19.82336"
         style="fill:none;stroke:#ff0000;stroke-width:2.75868011;stroke-linecap:butt;stroke-linejoin:miter;stroke-miterlimit:4;stroke-opacity:1;stroke-dasharray:none" />
      <path
         style="fill:none;stroke:#ff0000;stroke-width:2.75868011;stroke-linecap:butt;stroke-linejoin:miter;stroke-miterlimit:4;stroke-opacity:1;stroke-dasharray:none"
         d="m 547.64158,669.61837 c 0.0677,-18.42556 0.55209,-41.06645 2.78841,-56.10234 1.99743,-14.23216 6.15774,-29.05102 12.8964,-41.87081 5.78299,-10.12196 13.32813,-19.89101 16.79414,-27.82895 2.55235,-6.29178 4.45565,-12.11959 4.53117,-19.82336"
         id="path3997"
         inkscape:connector-curvature="0"
         sodipodi:nodetypes="ccccc" />
    </g>
    <g
       id="g3229"
       transform="matrix(1,0,0,2.1024093,0,-577.77933)">
      <path
         style="fill:none;stroke:#ff0000;stroke-width:2.75868011;stroke-linecap:butt;stroke-linejoin:miter;stroke-miterlimit:4;stroke-opacity:1;stroke-dasharray:none"
         d="m 577.01087,378.39142 c 0.064,18.42556 0.52147,41.06645 2.63376,56.10234 1.88664,14.23216 5.81621,29.05102 12.18112,41.87081 5.46225,10.12196 12.58891,19.89101 15.86269,27.82895 2.41079,6.29178 4.20852,12.11959 4.27985,19.82336"
         id="path3188"
         inkscape:connector-curvature="0"
         sodipodi:nodetypes="ccccc" />
      <path
         sodipodi:nodetypes="ccccc"
         inkscape:connector-curvature="0"
         id="path3999"
         d="m 577.01087,669.61837 c 0.064,-18.42556 0.52147,-41.06645 2.63376,-56.10234 1.88664,-14.23216 5.81621,-29.05102 12.18112,-41.87081 5.46225,-10.12196 12.58891,-19.89101 15.86269,-27.82895 2.41079,-6.29178 4.20852,-12.11959 4.27985,-19.82336"
         style="fill:none;stroke:#ff0000;stroke-width:2.75868011;stroke-linecap:butt;stroke-linejoin:miter;stroke-miterlimit:4;stroke-opacity:1;stroke-dasharray:none" />
    </g>
    <g
       id="g3233"
       transform="matrix(1,0,0,2.1024093,0,-577.77933)">
      <path
         sodipodi:nodetypes="ccccc"
         inkscape:connector-curvature="0"
         id="path3192"
         d="m 609.16978,378.39142 c 0.0577,18.42556 0.47044,41.06645 2.376,56.10234 1.702,14.23216 5.247,29.05102 10.989,41.87081 4.92768,10.12196 11.35688,19.89101 14.31026,27.82895 2.17486,6.29178 3.79665,12.11959 3.861,19.82336"
         style="fill:none;stroke:#ff0000;stroke-width:2.75868011;stroke-linecap:butt;stroke-linejoin:miter;stroke-miterlimit:4;stroke-opacity:1;stroke-dasharray:none" />
      <path
         style="fill:none;stroke:#ff0000;stroke-width:2.75868011;stroke-linecap:butt;stroke-linejoin:miter;stroke-miterlimit:4;stroke-opacity:1;stroke-dasharray:none"
         d="m 609.16978,669.61837 c 0.0577,-18.42556 0.47044,-41.06645 2.376,-56.10234 1.702,-14.23216 5.247,-29.05102 10.989,-41.87081 4.92768,-10.12196 11.35688,-19.89101 14.31026,-27.82895 2.17486,-6.29178 3.79665,-12.11959 3.861,-19.82336"
         id="path4001"
         inkscape:connector-curvature="0"
         sodipodi:nodetypes="ccccc" />
    </g>
    <g
       id="g3237"
       transform="matrix(0.76747951,0,0,2.1024093,152.94758,-577.77933)">
      <path
         style="fill:none;stroke:#ff0000;stroke-width:3.14896607;stroke-linecap:butt;stroke-linejoin:miter;stroke-miterlimit:4;stroke-opacity:1;stroke-dasharray:none"
         d="m 643.38139,378.39142 c 0.0527,18.42556 0.42961,41.06645 2.1698,56.10234 1.55428,14.23216 4.79163,29.05102 10.0353,41.87081 4.50002,10.12196 10.37125,19.89101 13.06832,27.82895 1.98611,6.29178 3.46715,12.11959 3.52591,19.82336"
         id="path3196"
         inkscape:connector-curvature="0"
         sodipodi:nodetypes="ccccc" />
      <path
         sodipodi:nodetypes="ccccc"
         inkscape:connector-curvature="0"
         id="path4003"
         d="m 643.38139,669.61837 c 0.0527,-18.42556 0.42961,-41.06645 2.1698,-56.10234 1.55428,-14.23216 4.79163,-29.05102 10.0353,-41.87081 4.50002,-10.12196 10.37125,-19.89101 13.06832,-27.82895 1.98611,-6.29178 3.46715,-12.11959 3.52591,-19.82336"
         style="fill:none;stroke:#ff0000;stroke-width:3.14896607;stroke-linecap:butt;stroke-linejoin:miter;stroke-miterlimit:4;stroke-opacity:1;stroke-dasharray:none" />
    </g>
    <g
       id="g4035"
       transform="matrix(0.6933161,0,0,1.813982,220.96438,-426.64203)">
      <path
         sodipodi:nodetypes="ccccc"
         inkscape:connector-curvature="0"
         id="path3200"
         d="m 720.49552,355.23855 c 0.0244,21.35527 0.19898,47.59611 1.00498,65.02274 0.7199,16.49511 2.21934,33.6702 4.64804,48.52837 2.08427,11.73137 4.80364,23.05372 6.05284,32.25381 0.9199,7.29219 1.60588,14.04664 1.63309,22.97532"
         style="fill:none;stroke:#ff0000;stroke-width:3.56679273;stroke-linecap:butt;stroke-linejoin:miter;stroke-miterlimit:4;stroke-opacity:1;stroke-dasharray:none" />
      <path
         style="fill:none;stroke:#ff0000;stroke-width:3.56679249;stroke-linecap:butt;stroke-linejoin:miter;stroke-miterlimit:4;stroke-opacity:1;stroke-dasharray:none"
         d="m 720.49552,692.77125 c 0.0244,-21.35526 0.19898,-47.59611 1.00498,-65.02274 0.7199,-16.4951 2.21934,-33.6702 4.64804,-48.52836 2.08427,-11.73138 4.80364,-23.05373 6.05284,-32.25382 0.9199,-7.29219 1.60588,-14.04663 1.63309,-22.97532"
         id="path4005"
         inkscape:connector-curvature="0"
         sodipodi:nodetypes="ccccc" />
    </g>
    <g
       transform="matrix(0.58189441,0,0,2.1024093,308.34958,-577.77933)"
       id="g3245">
      <path
         sodipodi:nodetypes="ccccc"
         inkscape:connector-curvature="0"
         id="path3247"
         d="m 643.38139,378.39142 c 0.0527,18.42556 0.42961,41.06645 2.1698,56.10234 1.55428,14.23216 4.79163,29.05102 10.0353,41.87081 4.50002,10.12196 10.37125,19.89101 13.06832,27.82895 1.98611,6.29178 3.46715,12.11959 3.52591,19.82336"
         style="fill:none;stroke:#ff0000;stroke-width:3.61642361;stroke-linecap:butt;stroke-linejoin:miter;stroke-miterlimit:4;stroke-opacity:1;stroke-dasharray:none" />
      <path
         style="fill:none;stroke:#ff0000;stroke-width:3.61642361;stroke-linecap:butt;stroke-linejoin:miter;stroke-miterlimit:4;stroke-opacity:1;stroke-dasharray:none"
         d="m 643.38139,669.61837 c 0.0527,-18.42556 0.42961,-41.06645 2.1698,-56.10234 1.55428,-14.23216 4.79163,-29.05102 10.0353,-41.87081 4.50002,-10.12196 10.37125,-19.89101 13.06832,-27.82895 1.98611,-6.29178 3.46715,-12.11959 3.52591,-19.82336"
         id="path3249"
         inkscape:connector-curvature="0"
         sodipodi:nodetypes="ccccc" />
    </g>
    <path
       style="fill:#0000ff;fill-opacity:1;stroke:#0000ff;stroke-width:2.5;stroke-linecap:butt;stroke-linejoin:miter;stroke-miterlimit:4;stroke-opacity:1;stroke-dasharray:none"
       d="m 460.54865,539.54471 -93.06159,0"
       id="path3808"
       inkscape:connector-curvature="0" />
    <g
       id="g3810"
       transform="matrix(1.6070099,-1.9695882e-4,-3.4968083e-4,1.2277892,232.59165,-502.74671)"
       style="fill:#0000ff;fill-opacity:1;stroke:#0000ff;stroke-width:0.4986186;stroke-opacity:1">
      <path
         style="fill:#0000ff;fill-opacity:1;stroke:#0000ff;stroke-width:0.71191609px;stroke-linecap:butt;stroke-linejoin:miter;stroke-opacity:1"
         d="m 150.04901,848.85171 -14.80195,-8.84987 -0.0552,17.52916 z"
         id="path3812"
         inkscape:connector-curvature="0"
         sodipodi:nodetypes="cccc" />
    </g>
    <text
       sodipodi:linespacing="125%"
       id="text3820"
       y="572.57672"
       x="399.14285"
       style="font-size:43.75101852px;font-style:normal;font-variant:normal;font-weight:normal;font-stretch:normal;text-align:start;line-height:125%;letter-spacing:0px;word-spacing:0px;writing-mode:lr-tb;text-anchor:start;fill:#000000;fill-opacity:1;stroke:none;font-family:Arial;-inkscape-font-specification:Arial"
       xml:space="preserve"><tspan
         id="tspan3822"
         y="572.57672"
         x="399.14285"
         sodipodi:role="line">a</tspan></text>
    <path
       style="fill:none;stroke:#000000;stroke-width:3.00000024;stroke-linecap:butt;stroke-linejoin:miter;stroke-miterlimit:4;stroke-opacity:1;stroke-dasharray:none"
       d="m 363.75289,529.53292 c 37.09571,-0.9886 74.73543,-2.83193 111.83113,-5.94833 -37.0957,-2.74265 -74.83253,-4.81105 -111.92824,-6.26141"
       id="path3185"
       inkscape:connector-curvature="0"
       sodipodi:nodetypes="ccc" />
    <path
       style="fill:none;stroke:#000000;stroke-width:3;stroke-linecap:butt;stroke-linejoin:miter;stroke-miterlimit:4;stroke-opacity:1;stroke-dasharray:none"
       d="m 365.0835,528.38262 0.0134,320.83952 c 129.54481,-9.71048 326.65588,22.90985 375.4055,-22.90617 40.51269,-45.77211 23.72408,-157.99184 19.40521,-301.18336 C 755.58877,381.94108 775.29656,286.79313 744.34069,226.4104 711.90333,176.03091 490.11641,200.12645 365.41195,201.69477 l -0.32848,313.94208"
       id="path3955"
       inkscape:connector-curvature="0"
       sodipodi:nodetypes="cccsccc" />
    <path
       inkscape:connector-curvature="0"
       id="path3834"
       d="m 350.84308,316.17416 0,203.18888"
       style="fill:#0000ff;fill-opacity:1;stroke:#0000ff;stroke-width:2.5;stroke-linecap:butt;stroke-linejoin:miter;stroke-miterlimit:4;stroke-opacity:1;stroke-dasharray:none" />
    <g
       style="fill:#0000ff;fill-opacity:1;stroke:#0000ff;stroke-width:0.4986186;stroke-opacity:1"
       transform="matrix(-1.9695882e-4,-1.6070099,1.2277892,3.4968083e-4,-691.44834,540.43272)"
       id="g3836">
      <path
         sodipodi:nodetypes="cccc"
         inkscape:connector-curvature="0"
         id="path3838"
         d="m 150.04901,848.85171 -14.80195,-8.84987 -0.0552,17.52916 z"
         style="fill:#0000ff;fill-opacity:1;stroke:#0000ff;stroke-width:0.71191609px;stroke-linecap:butt;stroke-linejoin:miter;stroke-opacity:1" />
    </g>
    <text
       xml:space="preserve"
       style="font-size:43.75101852px;font-style:normal;font-variant:normal;font-weight:normal;font-stretch:normal;text-align:start;line-height:125%;letter-spacing:0px;word-spacing:0px;writing-mode:lr-tb;text-anchor:start;fill:#000000;fill-opacity:1;stroke:none;font-family:Arial;-inkscape-font-specification:Arial"
       x="313.79727"
       y="431.97043"
       id="text3840"
       sodipodi:linespacing="125%"><tspan
         sodipodi:role="line"
         x="313.79727"
         y="431.97043"
         id="tspan3842">a</tspan></text>
    <text
       sodipodi:linespacing="125%"
       id="text3852"
       y="431.71542"
       x="277.92166"
       style="font-size:43.75101852px;font-style:normal;font-variant:normal;font-weight:normal;font-stretch:normal;text-align:start;line-height:125%;letter-spacing:0px;word-spacing:0px;writing-mode:lr-tb;text-anchor:start;fill:#000000;fill-opacity:1;stroke:none;font-family:Arial;-inkscape-font-specification:Arial"
       xml:space="preserve"><tspan
         id="tspan3854"
         y="431.71542"
         x="277.92166"
         sodipodi:role="line"
         style="font-style:normal;font-variant:normal;font-weight:normal;font-stretch:normal;font-family:SWGrekc;-inkscape-font-specification:SWGrekc">p</tspan></text>
    <path
       inkscape:connector-curvature="0"
       id="path3856"
       d="m 461.03926,186.56601 -0.009,-28.68874"
       style="fill:#000000;fill-opacity:1;stroke:#000000;stroke-width:1.99999964;stroke-linecap:butt;stroke-linejoin:miter;stroke-miterlimit:4;stroke-opacity:1;stroke-dasharray:none" />
    <g
       id="g3858"
       transform="matrix(-0.00256799,-0.76801013,0.82899291,-0.0027719,-242.33484,266.19938)">
      <path
         style="fill:#000000;fill-opacity:1;stroke:#000000;stroke-width:1.25325274px;stroke-linecap:butt;stroke-linejoin:miter;stroke-opacity:1"
         d="m 150.04901,848.85171 -14.80195,-8.84987 -0.0552,17.52916 z"
         id="path3860"
         inkscape:connector-curvature="0"
         sodipodi:nodetypes="cccc" />
    </g>
    <path
       style="fill:#000000;fill-opacity:1;stroke:#000000;stroke-width:1.99999964;stroke-linecap:butt;stroke-linejoin:miter;stroke-miterlimit:4;stroke-opacity:1;stroke-dasharray:none"
       d="m 594.50489,183.28607 -0.009,-28.68874"
       id="path3862"
       inkscape:connector-curvature="0" />
    <g
       transform="matrix(-0.00256799,-0.76801013,0.82899291,-0.0027719,-108.86921,262.91944)"
       id="g3864">
      <path
         sodipodi:nodetypes="cccc"
         inkscape:connector-curvature="0"
         id="path3866"
         d="m 150.04901,848.85171 -14.80195,-8.84987 -0.0552,17.52916 z"
         style="fill:#000000;fill-opacity:1;stroke:#000000;stroke-width:1.25325274px;stroke-linecap:butt;stroke-linejoin:miter;stroke-opacity:1" />
    </g>
    <path
       inkscape:connector-curvature="0"
       id="path3868"
       d="m 727.97052,193.71272 -0.009,-28.68874"
       style="fill:#000000;fill-opacity:1;stroke:#000000;stroke-width:1.99999964;stroke-linecap:butt;stroke-linejoin:miter;stroke-miterlimit:4;stroke-opacity:1;stroke-dasharray:none" />
    <g
       id="g3870"
       transform="matrix(-0.00256799,-0.76801013,0.82899291,-0.0027719,24.596422,273.34609)">
      <path
         style="fill:#000000;fill-opacity:1;stroke:#000000;stroke-width:1.25325274px;stroke-linecap:butt;stroke-linejoin:miter;stroke-opacity:1"
         d="m 150.04901,848.85171 -14.80195,-8.84987 -0.0552,17.52916 z"
         id="path3872"
         inkscape:connector-curvature="0"
         sodipodi:nodetypes="cccc" />
    </g>
    <path
       inkscape:connector-curvature="0"
       id="path3874"
       d="m 395.17635,857.43695 -0.009,28.68874"
       style="fill:#000000;fill-opacity:1;stroke:#000000;stroke-width:1.99999964;stroke-linecap:butt;stroke-linejoin:miter;stroke-miterlimit:4;stroke-opacity:1;stroke-dasharray:none" />
    <g
       id="g3876"
       transform="matrix(-0.00256799,0.76801013,0.82899291,0.0027719,-308.19775,777.80355)">
      <path
         style="fill:#000000;fill-opacity:1;stroke:#000000;stroke-width:1.25325274px;stroke-linecap:butt;stroke-linejoin:miter;stroke-opacity:1"
         d="m 150.04901,848.85171 -14.80195,-8.84987 -0.0552,17.52916 z"
         id="path3878"
         inkscape:connector-curvature="0"
         sodipodi:nodetypes="cccc" />
    </g>
    <path
       style="fill:#000000;fill-opacity:1;stroke:#000000;stroke-width:1.99999964;stroke-linecap:butt;stroke-linejoin:miter;stroke-miterlimit:4;stroke-opacity:1;stroke-dasharray:none"
       d="m 528.64198,860.71689 -0.009,28.68874"
       id="path3880"
       inkscape:connector-curvature="0" />
    <g
       transform="matrix(-0.00256799,0.76801013,0.82899291,0.0027719,-174.73212,781.08352)"
       id="g3882">
      <path
         sodipodi:nodetypes="cccc"
         inkscape:connector-curvature="0"
         id="path3884"
         d="m 150.04901,848.85171 -14.80195,-8.84987 -0.0552,17.52916 z"
         style="fill:#000000;fill-opacity:1;stroke:#000000;stroke-width:1.25325274px;stroke-linecap:butt;stroke-linejoin:miter;stroke-opacity:1" />
    </g>
    <path
       inkscape:connector-curvature="0"
       id="path3886"
       d="m 662.10761,858.29024 -0.009,28.68874"
       style="fill:#000000;fill-opacity:1;stroke:#000000;stroke-width:1.99999964;stroke-linecap:butt;stroke-linejoin:miter;stroke-miterlimit:4;stroke-opacity:1;stroke-dasharray:none" />
    <g
       id="g3888"
       transform="matrix(-0.00256799,0.76801013,0.82899291,0.0027719,-41.266484,778.65685)">
      <path
         style="fill:#000000;fill-opacity:1;stroke:#000000;stroke-width:1.25325274px;stroke-linecap:butt;stroke-linejoin:miter;stroke-opacity:1"
         d="m 150.04901,848.85171 -14.80195,-8.84987 -0.0552,17.52916 z"
         id="path3890"
         inkscape:connector-curvature="0"
         sodipodi:nodetypes="cccc" />
    </g>
    <path
       style="fill:#000000;fill-opacity:1;stroke:#000000;stroke-width:1.99999964;stroke-linecap:butt;stroke-linejoin:miter;stroke-miterlimit:4;stroke-opacity:1;stroke-dasharray:none"
       d="m 461.03926,859.43695 -0.009,28.68874"
       id="path3892"
       inkscape:connector-curvature="0" />
    <g
       transform="matrix(-0.00256799,0.76801013,0.82899291,0.0027719,-242.33484,779.80355)"
       id="g3894">
      <path
         sodipodi:nodetypes="cccc"
         inkscape:connector-curvature="0"
         id="path3896"
         d="m 150.04901,848.85171 -14.80195,-8.84987 -0.0552,17.52916 z"
         style="fill:#000000;fill-opacity:1;stroke:#000000;stroke-width:1.25325274px;stroke-linecap:butt;stroke-linejoin:miter;stroke-opacity:1" />
    </g>
    <path
       inkscape:connector-curvature="0"
       id="path3898"
       d="m 594.50489,858.71689 -0.009,28.68874"
       style="fill:#000000;fill-opacity:1;stroke:#000000;stroke-width:1.99999964;stroke-linecap:butt;stroke-linejoin:miter;stroke-miterlimit:4;stroke-opacity:1;stroke-dasharray:none" />
    <g
       id="g3900"
       transform="matrix(-0.00256799,0.76801013,0.82899291,0.0027719,-108.86921,779.08355)">
      <path
         style="fill:#000000;fill-opacity:1;stroke:#000000;stroke-width:1.25325274px;stroke-linecap:butt;stroke-linejoin:miter;stroke-opacity:1"
         d="m 150.04901,848.85171 -14.80195,-8.84987 -0.0552,17.52916 z"
         id="path3902"
         inkscape:connector-curvature="0"
         sodipodi:nodetypes="cccc" />
    </g>
    <path
       style="fill:#000000;fill-opacity:1;stroke:#000000;stroke-width:1.99999964;stroke-linecap:butt;stroke-linejoin:miter;stroke-miterlimit:4;stroke-opacity:1;stroke-dasharray:none"
       d="m 727.97052,852.29024 -0.009,28.68874"
       id="path3904"
       inkscape:connector-curvature="0" />
    <g
       transform="matrix(-0.00256799,0.76801013,0.82899291,0.0027719,24.596422,772.65685)"
       id="g3906">
      <path
         sodipodi:nodetypes="cccc"
         inkscape:connector-curvature="0"
         id="path3908"
         d="m 150.04901,848.85171 -14.80195,-8.84987 -0.0552,17.52916 z"
         style="fill:#000000;fill-opacity:1;stroke:#000000;stroke-width:1.25325274px;stroke-linecap:butt;stroke-linejoin:miter;stroke-opacity:1" />
    </g>
    <text
       xml:space="preserve"
       style="font-size:43.75101852px;font-style:normal;font-variant:normal;font-weight:normal;font-stretch:normal;text-align:start;line-height:125%;letter-spacing:0px;word-spacing:0px;writing-mode:lr-tb;text-anchor:start;fill:#000000;fill-opacity:1;stroke:none;font-family:Arial;-inkscape-font-specification:Arial"
       x="-822.78259"
       y="354.655"
       id="text3910"
       sodipodi:linespacing="125%"
       transform="matrix(0,-1,1,0,0,0)"><tspan
         sodipodi:role="line"
         x="-822.78259"
         y="354.655"
         id="tspan3912">Center Line</tspan></text>
    <path
       style="fill:#0000ff;fill-opacity:0.29100527;stroke:#0000ff;stroke-width:3;stroke-linecap:butt;stroke-linejoin:miter;stroke-miterlimit:4;stroke-opacity:1;stroke-dasharray:none"
       d="m 369.81685,513.02475 106.14405,0 L 370.16378,296.7497 z"
       id="path3914"
       inkscape:connector-curvature="0"
       sodipodi:nodetypes="cccc" />
    <g
       id="g3958"
       transform="translate(3.4055853,30.059789)">
      <text
         xml:space="preserve"
         style="font-size:43.75101852px;font-style:normal;font-variant:normal;font-weight:normal;font-stretch:normal;text-align:start;line-height:125%;letter-spacing:0px;word-spacing:0px;writing-mode:lr-tb;text-anchor:start;fill:#000000;fill-opacity:1;stroke:none;font-family:Arial;-inkscape-font-specification:Arial"
         x="209.30244"
         y="553.01141"
         id="text3916"
         sodipodi:linespacing="125%"><tspan
           sodipodi:role="line"
           x="209.30244"
           y="553.01141"
           id="tspan3918">a</tspan></text>
      <text
         sodipodi:linespacing="125%"
         id="text3920"
         y="552.75641"
         x="173.42683"
         style="font-size:43.75101852px;font-style:normal;font-variant:normal;font-weight:normal;font-stretch:normal;text-align:start;line-height:125%;letter-spacing:0px;word-spacing:0px;writing-mode:lr-tb;text-anchor:start;fill:#000000;fill-opacity:1;stroke:none;font-family:Arial;-inkscape-font-specification:Arial"
         xml:space="preserve"><tspan
           id="tspan3922"
           y="552.75641"
           x="173.42683"
           sodipodi:role="line"
           style="font-style:normal;font-variant:normal;font-weight:normal;font-stretch:normal;font-family:SWGrekc;-inkscape-font-specification:SWGrekc">p</tspan></text>
      <text
         sodipodi:linespacing="125%"
         id="text3924"
         y="530.62573"
         x="235.22296"
         style="font-size:24.77453804px;font-style:normal;font-variant:normal;font-weight:normal;font-stretch:normal;text-align:start;line-height:125%;letter-spacing:0px;word-spacing:0px;writing-mode:lr-tb;text-anchor:start;fill:#000000;fill-opacity:1;stroke:none;font-family:Arial;-inkscape-font-specification:Arial"
         xml:space="preserve"><tspan
           id="tspan3926"
           y="530.62573"
           x="235.22296"
           sodipodi:role="line">2</tspan></text>
      <path
         inkscape:connector-curvature="0"
         id="path3928"
         d="m 169.66547,560.51284 75.71595,0"
         style="fill:none;stroke:#000000;stroke-width:1.5;stroke-linecap:butt;stroke-linejoin:miter;stroke-miterlimit:4;stroke-opacity:1;stroke-dasharray:none" />
      <text
         sodipodi:linespacing="125%"
         id="text3930"
         y="596.90472"
         x="193.70149"
         style="font-size:37.8500824px;font-style:normal;font-variant:normal;font-weight:normal;font-stretch:normal;text-align:start;line-height:125%;letter-spacing:0px;word-spacing:0px;writing-mode:lr-tb;text-anchor:start;fill:#000000;fill-opacity:1;stroke:none;font-family:Arial;-inkscape-font-specification:Arial"
         xml:space="preserve"><tspan
           id="tspan3932"
           y="596.90472"
           x="193.70149"
           sodipodi:role="line">2</tspan></text>
    </g>
    <path
       style="fill:none;stroke:#000000;stroke-width:1px;stroke-linecap:butt;stroke-linejoin:miter;stroke-opacity:1"
       d="m 401.63421,470.42537 c -28.93289,27.73068 -78.24176,93.18273 -86.79866,83.19203 -7.96709,-8.26399 15.48621,-37.88337 7.00512,-45.87508 -10.11055,-8.43143 -49.00682,46.41265 -73.54115,69.81392"
       id="path3936"
       inkscape:connector-curvature="0"
       sodipodi:nodetypes="cccc" />
  </g>
</svg>
