<?xml version="1.0" encoding="UTF-8" standalone="no"?>
<!-- Created with Inkscape (http://www.inkscape.org/) -->

<svg
   xmlns:osb="http://www.openswatchbook.org/uri/2009/osb"
   xmlns:dc="http://purl.org/dc/elements/1.1/"
   xmlns:cc="http://creativecommons.org/ns#"
   xmlns:rdf="http://www.w3.org/1999/02/22-rdf-syntax-ns#"
   xmlns:svg="http://www.w3.org/2000/svg"
   xmlns="http://www.w3.org/2000/svg"
   xmlns:sodipodi="http://sodipodi.sourceforge.net/DTD/sodipodi-0.dtd"
   xmlns:inkscape="http://www.inkscape.org/namespaces/inkscape"
   viewBox="0 0 796.47928 958.82056"
   id="svg2"
   version="1.1"
   inkscape:version="0.48.2 r9819"
   sodipodi:docname="holestress_4.svg"
   inkscape:export-filename="C:\Users\bmcginty\Documents\Dropbox\Public\2014 Fracture Mechanics\images\hole\holestress_4.png"
   inkscape:export-xdpi="90"
   inkscape:export-ydpi="90"
   width="100%"
   height="100%">
  <defs
     id="defs4">
    <linearGradient
       osb:paint="solid"
       id="linearGradient3834">
      <stop
         id="stop3836"
         offset="0"
         style="stop-color:#000000;stop-opacity:1;" />
    </linearGradient>
  </defs>
  <sodipodi:namedview
     id="base"
     pagecolor="#ffffff"
     bordercolor="#666666"
     borderopacity="1.0"
     inkscape:pageopacity="0.0"
     inkscape:pageshadow="2"
     inkscape:zoom="0.54146299"
     inkscape:cx="398.23965"
     inkscape:cy="479.41028"
     inkscape:document-units="px"
     inkscape:current-layer="layer1"
     showgrid="false"
     inkscape:window-width="1366"
     inkscape:window-height="706"
     inkscape:window-x="-8"
     inkscape:window-y="-8"
     inkscape:window-maximized="1"
     fit-margin-top="2"
     fit-margin-left="2"
     fit-margin-right="2"
     fit-margin-bottom="2" />
  <metadata
     id="metadata7">
    <rdf:RDF>
      <cc:Work
         rdf:about="">
        <dc:format>image/svg+xml</dc:format>
        <dc:type
           rdf:resource="http://purl.org/dc/dcmitype/StillImage" />
        <dc:title></dc:title>
      </cc:Work>
    </rdf:RDF>
  </metadata>
  <g
     inkscape:label="Layer 1"
     inkscape:groupmode="layer"
     id="layer1"
     transform="translate(26.574445,-35.475449)">
    <text
       xml:space="preserve"
       style="font-size:20px;font-style:normal;font-variant:normal;font-weight:normal;font-stretch:normal;text-align:start;line-height:125%;letter-spacing:0px;word-spacing:0px;writing-mode:lr-tb;text-anchor:start;fill:#000000;fill-opacity:1;stroke:none;font-family:Arial;-inkscape-font-specification:Arial"
       x="-33.477245"
       y="298.15317"
       id="text3891"
       sodipodi:linespacing="125%"><tspan
         sodipodi:role="line"
         id="tspan3893"
         x="-33.477245"
         y="298.15317" /></text>
    <text
       xml:space="preserve"
       style="font-size:28px;font-style:normal;font-variant:normal;font-weight:normal;font-stretch:normal;text-align:start;line-height:125%;letter-spacing:0px;word-spacing:0px;writing-mode:lr-tb;text-anchor:start;fill:#000000;fill-opacity:1;stroke:none;font-family:Arial;-inkscape-font-specification:Arial"
       x="-34.831188"
       y="298.83014"
       id="text3895"
       sodipodi:linespacing="125%"><tspan
         sodipodi:role="line"
         id="tspan3897"
         x="-34.831188"
         y="298.83014" /></text>
    <text
       xml:space="preserve"
       style="font-size:20px;font-style:normal;font-variant:normal;font-weight:normal;font-stretch:normal;text-align:start;line-height:125%;letter-spacing:0px;word-spacing:0px;writing-mode:lr-tb;text-anchor:start;fill:#000000;fill-opacity:1;stroke:none;font-family:Arial;-inkscape-font-specification:Arial"
       x="-147.20805"
       y="-83.657379"
       id="text3915"
       sodipodi:linespacing="125%"><tspan
         sodipodi:role="line"
         id="tspan3917"
         x="-147.20805"
         y="-83.657379" /></text>
    <text
       xml:space="preserve"
       style="font-size:20px;font-style:normal;font-variant:normal;font-weight:normal;font-stretch:normal;text-align:start;line-height:125%;letter-spacing:0px;word-spacing:0px;writing-mode:lr-tb;text-anchor:start;fill:#000000;fill-opacity:1;stroke:none;font-family:Arial;-inkscape-font-specification:Arial"
       x="-203.76376"
       y="702.73932"
       id="text3876"
       sodipodi:linespacing="125%"><tspan
         sodipodi:role="line"
         id="tspan3878"
         x="-203.76376"
         y="702.73932" /></text>
    <path
       sodipodi:type="arc"
       style="fill:#e8e8e8;fill-opacity:1;fill-rule:nonzero;stroke:#00004b;stroke-width:1.32653058;stroke-linecap:round;stroke-linejoin:miter;stroke-miterlimit:4;stroke-opacity:1;stroke-dasharray:none;stroke-dashoffset:0"
       id="path3043"
       sodipodi:cx="217.1828"
       sodipodi:cy="239.18938"
       sodipodi:rx="65.659912"
       sodipodi:ry="65.659912"
       d="m 282.84271,239.18938 a 65.659912,65.659912 0 1 1 -131.31982,0 65.659912,65.659912 0 1 1 131.31982,0 z"
       transform="matrix(1.5076923,0,0,1.5076923,42.2913,164.41824)" />
    <path
       style="fill:none;stroke:#000000;stroke-width:2;stroke-linecap:butt;stroke-linejoin:miter;stroke-miterlimit:4;stroke-opacity:1;stroke-dasharray:none"
       d="M 1244.8704,87.122445 C 1230.3561,53.240092 1026.693,70.796326 897.85971,73.775882 771.67402,62.759618 508.38273,56.596685 495.03617,85.909121 c -26.86583,9.706591 -15.19224,254.798029 2.42664,382.197039 10.80012,62.61411 -37.07995,341.01903 3.63998,361.57053 11.7288,37.66424 263.69574,29.84921 387.05034,20.62652 74.41719,-15.17239 339.32627,24.35611 363.99717,-6.06663 37.289,-16.82824 -0.067,-317.92613 7.28,-379.77039 8.5592,-130.66282 23.527,-361.8314 -14.5599,-377.343745 z"
       id="path4622"
       inkscape:connector-curvature="0"
       transform="translate(-502.73813,54.648431)"
       sodipodi:nodetypes="ccccccccc" />
    <g
       id="g4660">
      <path
         style="fill:#000000;fill-opacity:1;stroke:#000000;stroke-width:1.99999964;stroke-linecap:butt;stroke-linejoin:miter;stroke-miterlimit:4;stroke-opacity:1;stroke-dasharray:none"
         d="m 59.041927,116.19737 -0.009,-28.688734"
         id="path4624"
         inkscape:connector-curvature="0" />
      <g
         transform="matrix(-0.00256799,-0.76801013,0.82899291,-0.0027719,-644.33217,195.83074)"
         id="g4626">
        <path
           sodipodi:nodetypes="cccc"
           inkscape:connector-curvature="0"
           id="path4628"
           d="m 150.04901,848.85171 -14.80195,-8.84987 -0.0552,17.52916 z"
           style="fill:#000000;fill-opacity:1;stroke:#000000;stroke-width:1.25325274px;stroke-linecap:butt;stroke-linejoin:miter;stroke-opacity:1" />
      </g>
      <path
         inkscape:connector-curvature="0"
         id="path4630"
         d="m 180.37432,113.77072 -0.009,-28.688732"
         style="fill:#000000;fill-opacity:1;stroke:#000000;stroke-width:1.99999964;stroke-linecap:butt;stroke-linejoin:miter;stroke-miterlimit:4;stroke-opacity:1;stroke-dasharray:none" />
      <g
         id="g4632"
         transform="matrix(-0.00256799,-0.76801013,0.82899291,-0.0027719,-522.99978,193.40409)">
        <path
           style="fill:#000000;fill-opacity:1;stroke:#000000;stroke-width:1.25325274px;stroke-linecap:butt;stroke-linejoin:miter;stroke-opacity:1"
           d="m 150.04901,848.85171 -14.80195,-8.84987 -0.0552,17.52916 z"
           id="path4634"
           inkscape:connector-curvature="0"
           sodipodi:nodetypes="cccc" />
      </g>
      <path
         style="fill:#000000;fill-opacity:1;stroke:#000000;stroke-width:1.99999964;stroke-linecap:butt;stroke-linejoin:miter;stroke-miterlimit:4;stroke-opacity:1;stroke-dasharray:none"
         d="m 305.34669,116.19737 -0.009,-28.688734"
         id="path4636"
         inkscape:connector-curvature="0" />
      <g
         transform="matrix(-0.00256799,-0.76801013,0.82899291,-0.0027719,-398.02741,195.83074)"
         id="g4638">
        <path
           sodipodi:nodetypes="cccc"
           inkscape:connector-curvature="0"
           id="path4640"
           d="m 150.04901,848.85171 -14.80195,-8.84987 -0.0552,17.52916 z"
           style="fill:#000000;fill-opacity:1;stroke:#000000;stroke-width:1.25325274px;stroke-linecap:butt;stroke-linejoin:miter;stroke-opacity:1" />
      </g>
      <path
         inkscape:connector-curvature="0"
         id="path4642"
         d="m 429.10573,122.69064 -0.009,-28.688736"
         style="fill:#000000;fill-opacity:1;stroke:#000000;stroke-width:1.99999964;stroke-linecap:butt;stroke-linejoin:miter;stroke-miterlimit:4;stroke-opacity:1;stroke-dasharray:none" />
      <g
         id="g4644"
         transform="matrix(-0.00256799,-0.76801013,0.82899291,-0.0027719,-274.26837,202.32401)">
        <path
           style="fill:#000000;fill-opacity:1;stroke:#000000;stroke-width:1.25325274px;stroke-linecap:butt;stroke-linejoin:miter;stroke-opacity:1"
           d="m 150.04901,848.85171 -14.80195,-8.84987 -0.0552,17.52916 z"
           id="path4646"
           inkscape:connector-curvature="0"
           sodipodi:nodetypes="cccc" />
      </g>
      <path
         style="fill:#000000;fill-opacity:1;stroke:#000000;stroke-width:1.99999964;stroke-linecap:butt;stroke-linejoin:miter;stroke-miterlimit:4;stroke-opacity:1;stroke-dasharray:none"
         d="m 562.57136,115.4107 -0.009,-28.68874"
         id="path4648"
         inkscape:connector-curvature="0" />
      <g
         transform="matrix(-0.00256799,-0.76801013,0.82899291,-0.0027719,-140.80274,195.04407)"
         id="g4650">
        <path
           sodipodi:nodetypes="cccc"
           inkscape:connector-curvature="0"
           id="path4652"
           d="m 150.04901,848.85171 -14.80195,-8.84987 -0.0552,17.52916 z"
           style="fill:#000000;fill-opacity:1;stroke:#000000;stroke-width:1.25325274px;stroke-linecap:butt;stroke-linejoin:miter;stroke-opacity:1" />
      </g>
      <path
         inkscape:connector-curvature="0"
         id="path4654"
         d="m 696.03699,117.83735 -0.009,-28.688742"
         style="fill:#000000;fill-opacity:1;stroke:#000000;stroke-width:1.99999964;stroke-linecap:butt;stroke-linejoin:miter;stroke-miterlimit:4;stroke-opacity:1;stroke-dasharray:none" />
      <g
         id="g4656"
         transform="matrix(-0.00256799,-0.76801013,0.82899291,-0.0027719,-7.337107,197.47072)">
        <path
           style="fill:#000000;fill-opacity:1;stroke:#000000;stroke-width:1.25325274px;stroke-linecap:butt;stroke-linejoin:miter;stroke-opacity:1"
           d="m 150.04901,848.85171 -14.80195,-8.84987 -0.0552,17.52916 z"
           id="path4658"
           inkscape:connector-curvature="0"
           sodipodi:nodetypes="cccc" />
      </g>
    </g>
    <path
       style="fill:#000000;fill-opacity:1;stroke:#000000;stroke-width:1.99999964;stroke-linecap:butt;stroke-linejoin:miter;stroke-miterlimit:4;stroke-opacity:1;stroke-dasharray:none"
       d="m 59.041927,910.29223 -0.009,28.68873"
       id="path4682"
       inkscape:connector-curvature="0" />
    <g
       transform="matrix(-0.00256799,0.76801013,0.82899291,0.0027719,-644.33217,830.65886)"
       id="g4684">
      <path
         sodipodi:nodetypes="cccc"
         inkscape:connector-curvature="0"
         id="path4686"
         d="m 150.04901,848.85171 -14.80195,-8.84987 -0.0552,17.52916 z"
         style="fill:#000000;fill-opacity:1;stroke:#000000;stroke-width:1.25325274px;stroke-linecap:butt;stroke-linejoin:miter;stroke-opacity:1" />
    </g>
    <path
       inkscape:connector-curvature="0"
       id="path4688"
       d="m 180.37432,916.71888 -0.009,28.68873"
       style="fill:#000000;fill-opacity:1;stroke:#000000;stroke-width:1.99999964;stroke-linecap:butt;stroke-linejoin:miter;stroke-miterlimit:4;stroke-opacity:1;stroke-dasharray:none" />
    <g
       id="g4690"
       transform="matrix(-0.00256799,0.76801013,0.82899291,0.0027719,-522.99978,837.08551)">
      <path
         style="fill:#000000;fill-opacity:1;stroke:#000000;stroke-width:1.25325274px;stroke-linecap:butt;stroke-linejoin:miter;stroke-opacity:1"
         d="m 150.04901,848.85171 -14.80195,-8.84987 -0.0552,17.52916 z"
         id="path4692"
         inkscape:connector-curvature="0"
         sodipodi:nodetypes="cccc" />
    </g>
    <path
       style="fill:#000000;fill-opacity:1;stroke:#000000;stroke-width:1.99999964;stroke-linecap:butt;stroke-linejoin:miter;stroke-miterlimit:4;stroke-opacity:1;stroke-dasharray:none"
       d="m 305.34669,914.29223 -0.009,28.68873"
       id="path4694"
       inkscape:connector-curvature="0" />
    <g
       transform="matrix(-0.00256799,0.76801013,0.82899291,0.0027719,-398.02741,834.65886)"
       id="g4696">
      <path
         sodipodi:nodetypes="cccc"
         inkscape:connector-curvature="0"
         id="path4698"
         d="m 150.04901,848.85171 -14.80195,-8.84987 -0.0552,17.52916 z"
         style="fill:#000000;fill-opacity:1;stroke:#000000;stroke-width:1.25325274px;stroke-linecap:butt;stroke-linejoin:miter;stroke-opacity:1" />
    </g>
    <path
       inkscape:connector-curvature="0"
       id="path4700"
       d="m 429.10573,905.79896 -0.009,28.68874"
       style="fill:#000000;fill-opacity:1;stroke:#000000;stroke-width:1.99999964;stroke-linecap:butt;stroke-linejoin:miter;stroke-miterlimit:4;stroke-opacity:1;stroke-dasharray:none" />
    <g
       id="g4702"
       transform="matrix(-0.00256799,0.76801013,0.82899291,0.0027719,-274.26837,826.16559)">
      <path
         style="fill:#000000;fill-opacity:1;stroke:#000000;stroke-width:1.25325274px;stroke-linecap:butt;stroke-linejoin:miter;stroke-opacity:1"
         d="m 150.04901,848.85171 -14.80195,-8.84987 -0.0552,17.52916 z"
         id="path4704"
         inkscape:connector-curvature="0"
         sodipodi:nodetypes="cccc" />
    </g>
    <path
       style="fill:#000000;fill-opacity:1;stroke:#000000;stroke-width:1.99999964;stroke-linecap:butt;stroke-linejoin:miter;stroke-miterlimit:4;stroke-opacity:1;stroke-dasharray:none"
       d="m 562.57136,911.0789 -0.009,28.68874"
       id="path4706"
       inkscape:connector-curvature="0" />
    <g
       transform="matrix(-0.00256799,0.76801013,0.82899291,0.0027719,-140.80274,831.44553)"
       id="g4708">
      <path
         sodipodi:nodetypes="cccc"
         inkscape:connector-curvature="0"
         id="path4710"
         d="m 150.04901,848.85171 -14.80195,-8.84987 -0.0552,17.52916 z"
         style="fill:#000000;fill-opacity:1;stroke:#000000;stroke-width:1.25325274px;stroke-linecap:butt;stroke-linejoin:miter;stroke-opacity:1" />
    </g>
    <path
       inkscape:connector-curvature="0"
       id="path4712"
       d="m 696.03699,908.65225 -0.009,28.68874"
       style="fill:#000000;fill-opacity:1;stroke:#000000;stroke-width:1.99999964;stroke-linecap:butt;stroke-linejoin:miter;stroke-miterlimit:4;stroke-opacity:1;stroke-dasharray:none" />
    <g
       id="g4714"
       transform="matrix(-0.00256799,0.76801013,0.82899291,0.0027719,-7.337107,829.01888)">
      <path
         style="fill:#000000;fill-opacity:1;stroke:#000000;stroke-width:1.25325274px;stroke-linecap:butt;stroke-linejoin:miter;stroke-opacity:1"
         d="m 150.04901,848.85171 -14.80195,-8.84987 -0.0552,17.52916 z"
         id="path4716"
         inkscape:connector-curvature="0"
         sodipodi:nodetypes="cccc" />
    </g>
    <g
       id="g4744"
       transform="matrix(1.3674743,0,0,1.3674743,696.11046,124.92314)">
      <text
         transform="translate(-502.73813,54.648431)"
         sodipodi:linespacing="125%"
         id="text4736"
         y="-100.21663"
         x="250.73239"
         style="font-size:36px;font-style:normal;font-variant:normal;font-weight:normal;font-stretch:normal;text-align:start;line-height:125%;letter-spacing:0px;word-spacing:0px;writing-mode:lr-tb;text-anchor:start;fill:#000000;fill-opacity:1;stroke:none;font-family:SWGrekc;-inkscape-font-specification:SWGrekc"
         xml:space="preserve"><tspan
           y="-100.21663"
           x="250.73239"
           id="tspan4738"
           sodipodi:role="line">s</tspan></text>
      <text
         transform="matrix(0,-1,1,0,0,0)"
         sodipodi:linespacing="125%"
         id="text4740"
         y="-219.97079"
         x="38.176235"
         style="font-size:18px;font-style:normal;font-variant:normal;font-weight:normal;font-stretch:normal;text-align:start;line-height:125%;letter-spacing:0px;word-spacing:0px;writing-mode:lr-tb;text-anchor:start;fill:#000000;fill-opacity:1;stroke:none;font-family:Arial;-inkscape-font-specification:Arial"
         xml:space="preserve"><tspan
           y="-219.97079"
           x="38.176235"
           id="tspan4742"
           sodipodi:role="line">8</tspan></text>
    </g>
    <g
       transform="matrix(1.3674743,0,0,1.3674743,696.11046,1045.4986)"
       id="g4750">
      <text
         xml:space="preserve"
         style="font-size:36px;font-style:normal;font-variant:normal;font-weight:normal;font-stretch:normal;text-align:start;line-height:125%;letter-spacing:0px;word-spacing:0px;writing-mode:lr-tb;text-anchor:start;fill:#000000;fill-opacity:1;stroke:none;font-family:SWGrekc;-inkscape-font-specification:SWGrekc"
         x="250.73239"
         y="-100.21663"
         id="text4752"
         sodipodi:linespacing="125%"
         transform="translate(-502.73813,54.648431)"><tspan
           sodipodi:role="line"
           id="tspan4754"
           x="250.73239"
           y="-100.21663">s</tspan></text>
      <text
         xml:space="preserve"
         style="font-size:18px;font-style:normal;font-variant:normal;font-weight:normal;font-stretch:normal;text-align:start;line-height:125%;letter-spacing:0px;word-spacing:0px;writing-mode:lr-tb;text-anchor:start;fill:#000000;fill-opacity:1;stroke:none;font-family:Arial;-inkscape-font-specification:Arial"
         x="38.176235"
         y="-219.97079"
         id="text4756"
         sodipodi:linespacing="125%"
         transform="matrix(0,-1,1,0,0,0)"><tspan
           sodipodi:role="line"
           id="tspan4758"
           x="38.176235"
           y="-219.97079">8</tspan></text>
    </g>
    <path
       style="fill:none;stroke:none"
       d="m 371.38199,743.14434 c 97.28057,0.58618 152.92995,-66.17756 152.92995,-66.17756"
       id="path4198"
       inkscape:connector-curvature="0"
       sodipodi:nodetypes="cc" />
    <path
       style="fill:none;stroke:none"
       d="m 402.43585,857.85677 c 56.37089,1.02123 172.62609,-35.39275 227.803,-123.55892"
       id="path4224"
       inkscape:connector-curvature="0"
       sodipodi:nodetypes="cc" />
    <g
       id="g3202"
       style="fill:none;fill-opacity:1;stroke:#ff0000;stroke-opacity:1;stroke-width:4.00000001;stroke-miterlimit:4;stroke-dasharray:none">
      <path
         sodipodi:nodetypes="ccccc"
         inkscape:connector-curvature="0"
         id="path3134"
         d="m 383.42586,171.2859 c 0.17397,44.63217 1.41958,99.47512 7.16973,135.8965 5.13589,34.4745 15.83314,70.37017 33.15999,101.42351 14.86954,24.51838 34.27004,48.18193 43.18205,67.40996 6.56273,15.24055 12.26933,29.35725 11.65081,48.01805"
         style="fill:none;stroke:#ff0000;stroke-width:4.00000001;stroke-linecap:butt;stroke-linejoin:miter;stroke-opacity:1;fill-opacity:1;stroke-miterlimit:4;stroke-dasharray:none" />
      <path
         style="fill:none;stroke:#ff0000;stroke-width:4.00000001;stroke-linecap:butt;stroke-linejoin:miter;stroke-opacity:1;fill-opacity:1;stroke-miterlimit:4;stroke-dasharray:none"
         d="m 410.79515,171.2859 c 0.14646,44.63217 1.19513,99.47512 6.03615,135.8965 4.32387,34.4745 13.32981,70.37017 27.91717,101.42351 12.51857,24.51838 28.85172,48.18193 36.35469,67.40996 5.52512,15.24055 9.64524,29.35725 9.80874,48.01805"
         id="path3168"
         inkscape:connector-curvature="0"
         sodipodi:nodetypes="ccccc" />
      <path
         sodipodi:nodetypes="ccccc"
         inkscape:connector-curvature="0"
         id="path3172"
         d="m 438.16446,171.2859 c 0.11894,44.63217 0.97057,99.47512 4.90201,135.8965 3.51146,34.4745 10.82529,70.37017 22.67183,101.42351 10.16646,24.51838 23.43078,48.18193 29.52402,67.40996 4.48701,15.24055 7.833,29.35725 7.96578,48.01805"
         style="fill:none;stroke:#ff0000;stroke-width:4.00000001;stroke-linecap:butt;stroke-linejoin:miter;stroke-opacity:1;fill-opacity:1;stroke-miterlimit:4;stroke-dasharray:none" />
      <path
         sodipodi:nodetypes="ccccc"
         inkscape:connector-curvature="0"
         id="path3176"
         d="m 465.53372,171.2859 c 0.0952,44.63217 0.77664,99.47512 3.92254,135.8965 2.80983,34.4745 8.66227,70.37017 18.14175,101.42351 8.1351,24.51838 18.74906,48.18193 23.6248,67.40996 3.59047,15.24055 6.26789,29.35725 6.37414,48.01805"
         style="fill:none;stroke:#ff0000;stroke-width:4.00000001;stroke-linecap:butt;stroke-linejoin:miter;stroke-opacity:1;fill-opacity:1;stroke-miterlimit:4;stroke-dasharray:none" />
      <path
         style="fill:none;stroke:#ff0000;stroke-width:4.00000001;stroke-linecap:butt;stroke-linejoin:miter;stroke-opacity:1;fill-opacity:1;stroke-miterlimit:4;stroke-dasharray:none"
         d="m 492.90301,171.2859 c 0.0827,44.63217 0.67458,99.47512 3.40703,135.8965 2.44056,34.4745 7.52385,70.37017 15.7575,101.42351 7.06596,24.51838 16.285,48.18193 20.51996,67.40996 3.11859,15.24055 5.44414,29.35725 5.53642,48.01805"
         id="path3178"
         inkscape:connector-curvature="0"
         sodipodi:nodetypes="ccccc" />
      <path
         style="fill:none;stroke:#ff0000;stroke-width:4.00000001;stroke-linecap:butt;stroke-linejoin:miter;stroke-opacity:1;fill-opacity:1;stroke-miterlimit:4;stroke-dasharray:none"
         d="m 520.27229,171.2859 c 0.0739,44.63217 0.60312,99.47512 3.04617,135.8965 2.18205,34.4745 6.72694,70.37017 14.08852,101.42351 6.31756,24.51838 14.56016,48.18193 18.34656,67.40996 2.78829,15.24055 4.86752,29.35725 4.95003,48.01805"
         id="path3182"
         inkscape:connector-curvature="0"
         sodipodi:nodetypes="ccccc" />
      <path
         sodipodi:nodetypes="ccccc"
         inkscape:connector-curvature="0"
         id="path3184"
         d="m 547.64158,171.2859 c 0.0677,44.63217 0.55209,99.47512 2.78841,135.8965 1.99743,34.4745 6.15774,70.37017 12.8964,101.42351 5.78299,24.51838 13.32813,48.18193 16.79414,67.40996 2.55235,15.24055 4.45565,29.35725 4.53117,48.01805"
         style="fill:none;stroke:#ff0000;stroke-width:4.00000001;stroke-linecap:butt;stroke-linejoin:miter;stroke-opacity:1;fill-opacity:1;stroke-miterlimit:4;stroke-dasharray:none" />
      <path
         style="fill:none;stroke:#ff0000;stroke-width:4.00000001;stroke-linecap:butt;stroke-linejoin:miter;stroke-opacity:1;fill-opacity:1;stroke-miterlimit:4;stroke-dasharray:none"
         d="m 577.01087,171.2859 c 0.064,44.63217 0.52147,99.47512 2.63376,135.8965 1.88664,34.4745 5.81621,70.37017 12.18112,101.42351 5.46225,24.51838 12.58891,48.18193 15.86269,67.40996 2.41079,15.24055 4.20852,29.35725 4.27985,48.01805"
         id="path3188"
         inkscape:connector-curvature="0"
         sodipodi:nodetypes="ccccc" />
      <path
         sodipodi:nodetypes="ccccc"
         inkscape:connector-curvature="0"
         id="path3192"
         d="m 609.16978,171.2859 c 0.0577,44.63217 0.47044,99.47512 2.376,135.8965 1.702,34.4745 5.247,70.37017 10.989,101.42351 4.92768,24.51838 11.35688,48.18193 14.31026,67.40996 2.17486,15.24055 3.79665,29.35725 3.861,48.01805"
         style="fill:none;stroke:#ff0000;stroke-width:4.00000001;stroke-linecap:butt;stroke-linejoin:miter;stroke-opacity:1;fill-opacity:1;stroke-miterlimit:4;stroke-dasharray:none" />
      <path
         style="fill:none;stroke:#ff0000;stroke-width:4.00000001;stroke-linecap:butt;stroke-linejoin:miter;stroke-opacity:1;fill-opacity:1;stroke-miterlimit:4;stroke-dasharray:none"
         d="m 643.38139,171.2859 c 0.0527,44.63217 0.42961,99.47512 2.1698,135.8965 1.55428,34.4745 4.79163,70.37017 10.0353,101.42351 4.50002,24.51838 10.37125,48.18193 13.06832,67.40996 1.98611,15.24055 3.46715,29.35725 3.52591,48.01805"
         id="path3196"
         inkscape:connector-curvature="0"
         sodipodi:nodetypes="ccccc" />
      <path
         sodipodi:nodetypes="ccccc"
         inkscape:connector-curvature="0"
         id="path3200"
         d="m 680.1521,171.2859 c 0.0403,44.63217 0.32857,99.47512 1.65947,135.8965 1.18872,34.4745 3.66465,70.37017 7.67501,101.42351 3.44163,24.51838 7.93195,48.18193 9.99468,67.40996 1.51898,15.24055 2.65168,29.35725 2.69662,48.01805"
         style="fill:none;stroke:#ff0000;stroke-width:4.00000001;stroke-linecap:butt;stroke-linejoin:miter;stroke-opacity:1;fill-opacity:1;stroke-miterlimit:4;stroke-dasharray:none" />
    </g>
    <g
       style="fill:none;stroke:#ff0000;stroke-width:4;stroke-miterlimit:4;stroke-opacity:1;stroke-dasharray:none"
       id="g3983"
       transform="matrix(1,0,0,-1,0,1048.0098)">
      <path
         style="fill:none;stroke:#ff0000;stroke-width:4;stroke-linecap:butt;stroke-linejoin:miter;stroke-miterlimit:4;stroke-opacity:1;stroke-dasharray:none"
         d="m 383.42586,171.2859 c 0.17397,44.63217 1.41958,99.47512 7.16973,135.8965 5.13589,34.4745 15.83314,70.37017 33.15999,101.42351 14.86954,24.51838 34.27004,48.18193 43.18205,67.40996 6.56273,15.24055 12.26933,29.35725 11.65081,48.01805"
         id="path3985"
         inkscape:connector-curvature="0"
         sodipodi:nodetypes="ccccc" />
      <path
         sodipodi:nodetypes="ccccc"
         inkscape:connector-curvature="0"
         id="path3987"
         d="m 410.79515,171.2859 c 0.14646,44.63217 1.19513,99.47512 6.03615,135.8965 4.32387,34.4745 13.32981,70.37017 27.91717,101.42351 12.51857,24.51838 28.85172,48.18193 36.35469,67.40996 5.52512,15.24055 9.64524,29.35725 9.80874,48.01805"
         style="fill:none;stroke:#ff0000;stroke-width:4;stroke-linecap:butt;stroke-linejoin:miter;stroke-miterlimit:4;stroke-opacity:1;stroke-dasharray:none" />
      <path
         style="fill:none;stroke:#ff0000;stroke-width:4;stroke-linecap:butt;stroke-linejoin:miter;stroke-miterlimit:4;stroke-opacity:1;stroke-dasharray:none"
         d="m 438.16446,171.2859 c 0.11894,44.63217 0.97057,99.47512 4.90201,135.8965 3.51146,34.4745 10.82529,70.37017 22.67183,101.42351 10.16646,24.51838 23.43078,48.18193 29.52402,67.40996 4.48701,15.24055 7.833,29.35725 7.96578,48.01805"
         id="path3989"
         inkscape:connector-curvature="0"
         sodipodi:nodetypes="ccccc" />
      <path
         style="fill:none;stroke:#ff0000;stroke-width:4;stroke-linecap:butt;stroke-linejoin:miter;stroke-miterlimit:4;stroke-opacity:1;stroke-dasharray:none"
         d="m 465.53372,171.2859 c 0.0952,44.63217 0.77664,99.47512 3.92254,135.8965 2.80983,34.4745 8.66227,70.37017 18.14175,101.42351 8.1351,24.51838 18.74906,48.18193 23.6248,67.40996 3.59047,15.24055 6.26789,29.35725 6.37414,48.01805"
         id="path3991"
         inkscape:connector-curvature="0"
         sodipodi:nodetypes="ccccc" />
      <path
         sodipodi:nodetypes="ccccc"
         inkscape:connector-curvature="0"
         id="path3993"
         d="m 492.90301,171.2859 c 0.0827,44.63217 0.67458,99.47512 3.40703,135.8965 2.44056,34.4745 7.52385,70.37017 15.7575,101.42351 7.06596,24.51838 16.285,48.18193 20.51996,67.40996 3.11859,15.24055 5.44414,29.35725 5.53642,48.01805"
         style="fill:none;stroke:#ff0000;stroke-width:4;stroke-linecap:butt;stroke-linejoin:miter;stroke-miterlimit:4;stroke-opacity:1;stroke-dasharray:none" />
      <path
         sodipodi:nodetypes="ccccc"
         inkscape:connector-curvature="0"
         id="path3995"
         d="m 520.27229,171.2859 c 0.0739,44.63217 0.60312,99.47512 3.04617,135.8965 2.18205,34.4745 6.72694,70.37017 14.08852,101.42351 6.31756,24.51838 14.56016,48.18193 18.34656,67.40996 2.78829,15.24055 4.86752,29.35725 4.95003,48.01805"
         style="fill:none;stroke:#ff0000;stroke-width:4;stroke-linecap:butt;stroke-linejoin:miter;stroke-miterlimit:4;stroke-opacity:1;stroke-dasharray:none" />
      <path
         style="fill:none;stroke:#ff0000;stroke-width:4;stroke-linecap:butt;stroke-linejoin:miter;stroke-miterlimit:4;stroke-opacity:1;stroke-dasharray:none"
         d="m 547.64158,171.2859 c 0.0677,44.63217 0.55209,99.47512 2.78841,135.8965 1.99743,34.4745 6.15774,70.37017 12.8964,101.42351 5.78299,24.51838 13.32813,48.18193 16.79414,67.40996 2.55235,15.24055 4.45565,29.35725 4.53117,48.01805"
         id="path3997"
         inkscape:connector-curvature="0"
         sodipodi:nodetypes="ccccc" />
      <path
         sodipodi:nodetypes="ccccc"
         inkscape:connector-curvature="0"
         id="path3999"
         d="m 577.01087,171.2859 c 0.064,44.63217 0.52147,99.47512 2.63376,135.8965 1.88664,34.4745 5.81621,70.37017 12.18112,101.42351 5.46225,24.51838 12.58891,48.18193 15.86269,67.40996 2.41079,15.24055 4.20852,29.35725 4.27985,48.01805"
         style="fill:none;stroke:#ff0000;stroke-width:4;stroke-linecap:butt;stroke-linejoin:miter;stroke-miterlimit:4;stroke-opacity:1;stroke-dasharray:none" />
      <path
         style="fill:none;stroke:#ff0000;stroke-width:4;stroke-linecap:butt;stroke-linejoin:miter;stroke-miterlimit:4;stroke-opacity:1;stroke-dasharray:none"
         d="m 609.16978,171.2859 c 0.0577,44.63217 0.47044,99.47512 2.376,135.8965 1.702,34.4745 5.247,70.37017 10.989,101.42351 4.92768,24.51838 11.35688,48.18193 14.31026,67.40996 2.17486,15.24055 3.79665,29.35725 3.861,48.01805"
         id="path4001"
         inkscape:connector-curvature="0"
         sodipodi:nodetypes="ccccc" />
      <path
         sodipodi:nodetypes="ccccc"
         inkscape:connector-curvature="0"
         id="path4003"
         d="m 643.38139,171.2859 c 0.0527,44.63217 0.42961,99.47512 2.1698,135.8965 1.55428,34.4745 4.79163,70.37017 10.0353,101.42351 4.50002,24.51838 10.37125,48.18193 13.06832,67.40996 1.98611,15.24055 3.46715,29.35725 3.52591,48.01805"
         style="fill:none;stroke:#ff0000;stroke-width:4;stroke-linecap:butt;stroke-linejoin:miter;stroke-miterlimit:4;stroke-opacity:1;stroke-dasharray:none" />
      <path
         style="fill:none;stroke:#ff0000;stroke-width:4;stroke-linecap:butt;stroke-linejoin:miter;stroke-miterlimit:4;stroke-opacity:1;stroke-dasharray:none"
         d="m 680.1521,171.2859 c 0.0403,44.63217 0.32857,99.47512 1.65947,135.8965 1.18872,34.4745 3.66465,70.37017 7.67501,101.42351 3.44163,24.51838 7.93195,48.18193 9.99468,67.40996 1.51898,15.24055 2.65168,29.35725 2.69662,48.01805"
         id="path4005"
         inkscape:connector-curvature="0"
         sodipodi:nodetypes="ccccc" />
    </g>
    <g
       style="fill:none;stroke:#ff0000;stroke-width:4;stroke-miterlimit:4;stroke-opacity:1;stroke-dasharray:none"
       id="g4007"
       transform="matrix(-1,0,0,1,739.6037,0)">
      <path
         style="fill:none;stroke:#ff0000;stroke-width:4;stroke-linecap:butt;stroke-linejoin:miter;stroke-miterlimit:4;stroke-opacity:1;stroke-dasharray:none"
         d="m 383.42586,171.2859 c 0.17397,44.63217 1.41958,99.47512 7.16973,135.8965 5.13589,34.4745 15.83314,70.37017 33.15999,101.42351 14.86954,24.51838 34.27004,48.18193 43.18205,67.40996 6.56273,15.24055 12.26933,29.35725 11.65081,48.01805"
         id="path4009"
         inkscape:connector-curvature="0"
         sodipodi:nodetypes="ccccc" />
      <path
         sodipodi:nodetypes="ccccc"
         inkscape:connector-curvature="0"
         id="path4011"
         d="m 410.79515,171.2859 c 0.14646,44.63217 1.19513,99.47512 6.03615,135.8965 4.32387,34.4745 13.32981,70.37017 27.91717,101.42351 12.51857,24.51838 28.85172,48.18193 36.35469,67.40996 5.52512,15.24055 9.64524,29.35725 9.80874,48.01805"
         style="fill:none;stroke:#ff0000;stroke-width:4;stroke-linecap:butt;stroke-linejoin:miter;stroke-miterlimit:4;stroke-opacity:1;stroke-dasharray:none" />
      <path
         style="fill:none;stroke:#ff0000;stroke-width:4;stroke-linecap:butt;stroke-linejoin:miter;stroke-miterlimit:4;stroke-opacity:1;stroke-dasharray:none"
         d="m 438.16446,171.2859 c 0.11894,44.63217 0.97057,99.47512 4.90201,135.8965 3.51146,34.4745 10.82529,70.37017 22.67183,101.42351 10.16646,24.51838 23.43078,48.18193 29.52402,67.40996 4.48701,15.24055 7.833,29.35725 7.96578,48.01805"
         id="path4013"
         inkscape:connector-curvature="0"
         sodipodi:nodetypes="ccccc" />
      <path
         style="fill:none;stroke:#ff0000;stroke-width:4;stroke-linecap:butt;stroke-linejoin:miter;stroke-miterlimit:4;stroke-opacity:1;stroke-dasharray:none"
         d="m 465.53372,171.2859 c 0.0952,44.63217 0.77664,99.47512 3.92254,135.8965 2.80983,34.4745 8.66227,70.37017 18.14175,101.42351 8.1351,24.51838 18.74906,48.18193 23.6248,67.40996 3.59047,15.24055 6.26789,29.35725 6.37414,48.01805"
         id="path4015"
         inkscape:connector-curvature="0"
         sodipodi:nodetypes="ccccc" />
      <path
         sodipodi:nodetypes="ccccc"
         inkscape:connector-curvature="0"
         id="path4017"
         d="m 492.90301,171.2859 c 0.0827,44.63217 0.67458,99.47512 3.40703,135.8965 2.44056,34.4745 7.52385,70.37017 15.7575,101.42351 7.06596,24.51838 16.285,48.18193 20.51996,67.40996 3.11859,15.24055 5.44414,29.35725 5.53642,48.01805"
         style="fill:none;stroke:#ff0000;stroke-width:4;stroke-linecap:butt;stroke-linejoin:miter;stroke-miterlimit:4;stroke-opacity:1;stroke-dasharray:none" />
      <path
         sodipodi:nodetypes="ccccc"
         inkscape:connector-curvature="0"
         id="path4019"
         d="m 520.27229,171.2859 c 0.0739,44.63217 0.60312,99.47512 3.04617,135.8965 2.18205,34.4745 6.72694,70.37017 14.08852,101.42351 6.31756,24.51838 14.56016,48.18193 18.34656,67.40996 2.78829,15.24055 4.86752,29.35725 4.95003,48.01805"
         style="fill:none;stroke:#ff0000;stroke-width:4;stroke-linecap:butt;stroke-linejoin:miter;stroke-miterlimit:4;stroke-opacity:1;stroke-dasharray:none" />
      <path
         style="fill:none;stroke:#ff0000;stroke-width:4;stroke-linecap:butt;stroke-linejoin:miter;stroke-miterlimit:4;stroke-opacity:1;stroke-dasharray:none"
         d="m 547.64158,171.2859 c 0.0677,44.63217 0.55209,99.47512 2.78841,135.8965 1.99743,34.4745 6.15774,70.37017 12.8964,101.42351 5.78299,24.51838 13.32813,48.18193 16.79414,67.40996 2.55235,15.24055 4.45565,29.35725 4.53117,48.01805"
         id="path4021"
         inkscape:connector-curvature="0"
         sodipodi:nodetypes="ccccc" />
      <path
         sodipodi:nodetypes="ccccc"
         inkscape:connector-curvature="0"
         id="path4023"
         d="m 577.01087,171.2859 c 0.064,44.63217 0.52147,99.47512 2.63376,135.8965 1.88664,34.4745 5.81621,70.37017 12.18112,101.42351 5.46225,24.51838 12.58891,48.18193 15.86269,67.40996 2.41079,15.24055 4.20852,29.35725 4.27985,48.01805"
         style="fill:none;stroke:#ff0000;stroke-width:4;stroke-linecap:butt;stroke-linejoin:miter;stroke-miterlimit:4;stroke-opacity:1;stroke-dasharray:none" />
      <path
         style="fill:none;stroke:#ff0000;stroke-width:4;stroke-linecap:butt;stroke-linejoin:miter;stroke-miterlimit:4;stroke-opacity:1;stroke-dasharray:none"
         d="m 609.16978,171.2859 c 0.0577,44.63217 0.47044,99.47512 2.376,135.8965 1.702,34.4745 5.247,70.37017 10.989,101.42351 4.92768,24.51838 11.35688,48.18193 14.31026,67.40996 2.17486,15.24055 3.79665,29.35725 3.861,48.01805"
         id="path4025"
         inkscape:connector-curvature="0"
         sodipodi:nodetypes="ccccc" />
      <path
         sodipodi:nodetypes="ccccc"
         inkscape:connector-curvature="0"
         id="path4027"
         d="m 643.38139,171.2859 c 0.0527,44.63217 0.42961,99.47512 2.1698,135.8965 1.55428,34.4745 4.79163,70.37017 10.0353,101.42351 4.50002,24.51838 10.37125,48.18193 13.06832,67.40996 1.98611,15.24055 3.46715,29.35725 3.52591,48.01805"
         style="fill:none;stroke:#ff0000;stroke-width:4;stroke-linecap:butt;stroke-linejoin:miter;stroke-miterlimit:4;stroke-opacity:1;stroke-dasharray:none" />
      <path
         style="fill:none;stroke:#ff0000;stroke-width:4;stroke-linecap:butt;stroke-linejoin:miter;stroke-miterlimit:4;stroke-opacity:1;stroke-dasharray:none"
         d="m 680.1521,171.2859 c 0.0403,44.63217 0.32857,99.47512 1.65947,135.8965 1.18872,34.4745 3.66465,70.37017 7.67501,101.42351 3.44163,24.51838 7.93195,48.18193 9.99468,67.40996 1.51898,15.24055 2.65168,29.35725 2.69662,48.01805"
         id="path4029"
         inkscape:connector-curvature="0"
         sodipodi:nodetypes="ccccc" />
    </g>
    <g
       transform="matrix(-1,0,0,-1,739.6037,1048.0098)"
       id="g4031"
       style="fill:none;stroke:#ff0000;stroke-width:4;stroke-miterlimit:4;stroke-opacity:1;stroke-dasharray:none">
      <path
         sodipodi:nodetypes="ccccc"
         inkscape:connector-curvature="0"
         id="path4033"
         d="m 383.42586,171.2859 c 0.17397,44.63217 1.41958,99.47512 7.16973,135.8965 5.13589,34.4745 15.83314,70.37017 33.15999,101.42351 14.86954,24.51838 34.27004,48.18193 43.18205,67.40996 6.56273,15.24055 12.26933,29.35725 11.65081,48.01805"
         style="fill:none;stroke:#ff0000;stroke-width:4;stroke-linecap:butt;stroke-linejoin:miter;stroke-miterlimit:4;stroke-opacity:1;stroke-dasharray:none" />
      <path
         style="fill:none;stroke:#ff0000;stroke-width:4;stroke-linecap:butt;stroke-linejoin:miter;stroke-miterlimit:4;stroke-opacity:1;stroke-dasharray:none"
         d="m 410.79515,171.2859 c 0.14646,44.63217 1.19513,99.47512 6.03615,135.8965 4.32387,34.4745 13.32981,70.37017 27.91717,101.42351 12.51857,24.51838 28.85172,48.18193 36.35469,67.40996 5.52512,15.24055 9.64524,29.35725 9.80874,48.01805"
         id="path4035"
         inkscape:connector-curvature="0"
         sodipodi:nodetypes="ccccc" />
      <path
         sodipodi:nodetypes="ccccc"
         inkscape:connector-curvature="0"
         id="path4037"
         d="m 438.16446,171.2859 c 0.11894,44.63217 0.97057,99.47512 4.90201,135.8965 3.51146,34.4745 10.82529,70.37017 22.67183,101.42351 10.16646,24.51838 23.43078,48.18193 29.52402,67.40996 4.48701,15.24055 7.833,29.35725 7.96578,48.01805"
         style="fill:none;stroke:#ff0000;stroke-width:4;stroke-linecap:butt;stroke-linejoin:miter;stroke-miterlimit:4;stroke-opacity:1;stroke-dasharray:none" />
      <path
         sodipodi:nodetypes="ccccc"
         inkscape:connector-curvature="0"
         id="path4039"
         d="m 465.53372,171.2859 c 0.0952,44.63217 0.77664,99.47512 3.92254,135.8965 2.80983,34.4745 8.66227,70.37017 18.14175,101.42351 8.1351,24.51838 18.74906,48.18193 23.6248,67.40996 3.59047,15.24055 6.26789,29.35725 6.37414,48.01805"
         style="fill:none;stroke:#ff0000;stroke-width:4;stroke-linecap:butt;stroke-linejoin:miter;stroke-miterlimit:4;stroke-opacity:1;stroke-dasharray:none" />
      <path
         style="fill:none;stroke:#ff0000;stroke-width:4;stroke-linecap:butt;stroke-linejoin:miter;stroke-miterlimit:4;stroke-opacity:1;stroke-dasharray:none"
         d="m 492.90301,171.2859 c 0.0827,44.63217 0.67458,99.47512 3.40703,135.8965 2.44056,34.4745 7.52385,70.37017 15.7575,101.42351 7.06596,24.51838 16.285,48.18193 20.51996,67.40996 3.11859,15.24055 5.44414,29.35725 5.53642,48.01805"
         id="path4041"
         inkscape:connector-curvature="0"
         sodipodi:nodetypes="ccccc" />
      <path
         style="fill:none;stroke:#ff0000;stroke-width:4;stroke-linecap:butt;stroke-linejoin:miter;stroke-miterlimit:4;stroke-opacity:1;stroke-dasharray:none"
         d="m 520.27229,171.2859 c 0.0739,44.63217 0.60312,99.47512 3.04617,135.8965 2.18205,34.4745 6.72694,70.37017 14.08852,101.42351 6.31756,24.51838 14.56016,48.18193 18.34656,67.40996 2.78829,15.24055 4.86752,29.35725 4.95003,48.01805"
         id="path4043"
         inkscape:connector-curvature="0"
         sodipodi:nodetypes="ccccc" />
      <path
         sodipodi:nodetypes="ccccc"
         inkscape:connector-curvature="0"
         id="path4045"
         d="m 547.64158,171.2859 c 0.0677,44.63217 0.55209,99.47512 2.78841,135.8965 1.99743,34.4745 6.15774,70.37017 12.8964,101.42351 5.78299,24.51838 13.32813,48.18193 16.79414,67.40996 2.55235,15.24055 4.45565,29.35725 4.53117,48.01805"
         style="fill:none;stroke:#ff0000;stroke-width:4;stroke-linecap:butt;stroke-linejoin:miter;stroke-miterlimit:4;stroke-opacity:1;stroke-dasharray:none" />
      <path
         style="fill:none;stroke:#ff0000;stroke-width:4;stroke-linecap:butt;stroke-linejoin:miter;stroke-miterlimit:4;stroke-opacity:1;stroke-dasharray:none"
         d="m 577.01087,171.2859 c 0.064,44.63217 0.52147,99.47512 2.63376,135.8965 1.88664,34.4745 5.81621,70.37017 12.18112,101.42351 5.46225,24.51838 12.58891,48.18193 15.86269,67.40996 2.41079,15.24055 4.20852,29.35725 4.27985,48.01805"
         id="path4047"
         inkscape:connector-curvature="0"
         sodipodi:nodetypes="ccccc" />
      <path
         sodipodi:nodetypes="ccccc"
         inkscape:connector-curvature="0"
         id="path4049"
         d="m 609.16978,171.2859 c 0.0577,44.63217 0.47044,99.47512 2.376,135.8965 1.702,34.4745 5.247,70.37017 10.989,101.42351 4.92768,24.51838 11.35688,48.18193 14.31026,67.40996 2.17486,15.24055 3.79665,29.35725 3.861,48.01805"
         style="fill:none;stroke:#ff0000;stroke-width:4;stroke-linecap:butt;stroke-linejoin:miter;stroke-miterlimit:4;stroke-opacity:1;stroke-dasharray:none" />
      <path
         style="fill:none;stroke:#ff0000;stroke-width:4;stroke-linecap:butt;stroke-linejoin:miter;stroke-miterlimit:4;stroke-opacity:1;stroke-dasharray:none"
         d="m 643.38139,171.2859 c 0.0527,44.63217 0.42961,99.47512 2.1698,135.8965 1.55428,34.4745 4.79163,70.37017 10.0353,101.42351 4.50002,24.51838 10.37125,48.18193 13.06832,67.40996 1.98611,15.24055 3.46715,29.35725 3.52591,48.01805"
         id="path4051"
         inkscape:connector-curvature="0"
         sodipodi:nodetypes="ccccc" />
      <path
         sodipodi:nodetypes="ccccc"
         inkscape:connector-curvature="0"
         id="path4053"
         d="m 680.1521,171.2859 c 0.0403,44.63217 0.32857,99.47512 1.65947,135.8965 1.18872,34.4745 3.66465,70.37017 7.67501,101.42351 3.44163,24.51838 7.93195,48.18193 9.99468,67.40996 1.51898,15.24055 2.65168,29.35725 2.69662,48.01805"
         style="fill:none;stroke:#ff0000;stroke-width:4;stroke-linecap:butt;stroke-linejoin:miter;stroke-miterlimit:4;stroke-opacity:1;stroke-dasharray:none" />
    </g>
  </g>
</svg>
